<?xml version="1.0" encoding="UTF-8"?>
<svg version="1.1" xmlns="http://www.w3.org/2000/svg" width="940" height="236">
<path d="M0 0 C310.2 0 620.4 0 940 0 C940 77.88 940 155.76 940 236 C629.8 236 319.6 236 0 236 C0 158.12 0 80.24 0 0 Z " fill="#FEFEFE" transform="translate(0,0)"/>
<path d="M0 0 C0.66 0 1.32 0 2 0 C5.62465604 6.07020711 4.83896002 13.61157894 3.1953125 20.25 C-7.96434942 51.65097974 -37.53541247 76.40731782 -66.8125 90.375 C-106.96187416 108.01933755 -151.99780495 97.1990072 -191.1171875 82.14355469 C-196.10676278 80.16428889 -201.05689876 78.09223173 -206 76 C-203.03258218 59.54227091 -188.25887459 42.18515288 -174.94921875 32.86328125 C-169.20736481 29.38314868 -163.50838336 26.65625526 -157 25 C-156.28070313 24.79632813 -155.56140625 24.59265625 -154.8203125 24.3828125 C-144.08535478 21.74425387 -132.67057167 22.52417069 -121.8125 24 C-106.50178374 26.01730242 -91.7282922 25.89084819 -76.75 21.97265625 C-73.5006081 21.12984523 -70.31748878 20.49243974 -67 20 C-67.4860622 26.92638638 -68.77121796 32.05684098 -74.03125 36.8515625 C-83.13196461 43.79528955 -93.68997195 46.48938925 -105 47 C-104.40138258 49.35171131 -103.73075648 51.6859378 -103 54 C-98.63912628 56.18043686 -92.78091102 55.11687908 -88 55 C-87.25363281 54.98324219 -86.50726563 54.96648437 -85.73828125 54.94921875 C-62.26536961 53.33516785 -39.50303567 39.88261958 -22 25 C-21.44183594 24.56300781 -20.88367188 24.12601563 -20.30859375 23.67578125 C-12.8319866 17.79990984 -7.42115129 9.99705721 -1.91796875 2.34375 C-1.28503906 1.5703125 -0.65210938 0.796875 0 0 Z " fill="#0354CC" transform="translate(209,113)"/>
<path d="M0 0 C5.11510595 3.30460453 9.41160326 7.43743979 13.5234375 11.90625 C13.94753906 11.54273437 14.37164062 11.17921875 14.80859375 10.8046875 C16.04120722 9.74816166 17.2743146 8.69221188 18.5078125 7.63671875 C19.83442776 6.49778355 21.15745563 5.35465423 22.4765625 4.20703125 C23.09015625 3.67464844 23.70375 3.14226563 24.3359375 2.59375 C24.89925781 2.10261719 25.46257812 1.61148438 26.04296875 1.10546875 C30.40361316 -2.42676828 36.20905436 -1.58368033 41.5234375 -1.09375 C46.444668 0.50891622 49.6311338 3.67903689 52.5234375 7.90625 C53.83399779 10.52737057 53.8020345 12.60208189 53.8984375 15.53125 C53.94742188 16.53414062 53.99640625 17.53703125 54.046875 18.5703125 C52.76321729 26.75123554 46.28679446 32.55856627 40.59765625 38.125 C39.85006546 38.86834595 39.10247467 39.61169189 38.33222961 40.37756348 C35.96547269 42.72765735 33.58845331 45.06704624 31.2109375 47.40625 C29.59501079 49.00711395 27.97976927 50.60866986 26.36523438 52.2109375 C22.42585609 56.11741086 18.4780198 60.0151718 14.5234375 63.90625 C9.53568698 59.71440859 4.79714714 55.36413537 0.1640625 50.78515625 C-0.50699524 50.12217026 -1.17805298 49.45918427 -1.8694458 48.77610779 C-3.27591141 47.38337663 -4.68090225 45.98915471 -6.08447266 44.59350586 C-7.51525424 43.17430228 -8.95050651 41.75959203 -10.39013672 40.34936523 C-12.48614684 38.2960578 -14.56855766 36.22978643 -16.6484375 34.16015625 C-17.60940338 33.2254525 -17.60940338 33.2254525 -18.58978271 32.27186584 C-23.1628219 27.67644756 -26.89938099 22.71846962 -26.9140625 15.90625 C-26.68532154 10.76455109 -24.56216085 7.01363006 -20.98046875 3.39453125 C-15.11391333 -1.71127384 -7.27206201 -3.21163622 0 0 Z " fill="#E24468" transform="translate(103.4765625,57.09375)"/>
<path d="M0 0 C6.17639262 3.66008451 10.19950247 9.20035078 12.375 16 C13.42893816 26.12890045 12.85819873 35.15211114 7.375 44 C2.80712945 49.57679341 -3.18127296 52.53223926 -10.296875 53.28125 C-19.04973739 53.57140013 -25.57329923 51.69761486 -32.0859375 45.75 C-39.0206882 37.86480123 -39.36889418 28.05595011 -38.84716797 18.06738281 C-38.07099595 10.84471833 -33.94833263 5.60194912 -28.46875 1.15625 C-20.52690318 -3.82423021 -8.49260208 -3.83912149 0 0 Z " fill="#0958CD" transform="translate(577.625,67)"/>
<path d="M0 0 C1.73926758 -0.0299707 1.73926758 -0.0299707 3.51367188 -0.06054688 C10.59235197 -0.05652261 15.32352118 0.58341599 21.3125 4.4375 C26.07151927 9.56259768 26.60763481 12.85104151 26.52734375 19.67578125 C26.14717906 24.56262558 24.4557648 27.32513425 21 30.6875 C15.12099955 34.51568634 9.72308482 34.70318996 2.9375 34.5625 C2.10605469 34.55347656 1.27460937 34.54445312 0.41796875 34.53515625 C-1.61731337 34.5117622 -3.65244564 34.47589725 -5.6875 34.4375 C-5.65269531 35.70207031 -5.61789062 36.96664062 -5.58203125 38.26953125 C-5.55389323 39.92967423 -5.52659309 41.58983156 -5.5 43.25 C-5.47486328 44.08337891 -5.44972656 44.91675781 -5.42382812 45.77539062 C-5.40932617 46.97905273 -5.40932617 46.97905273 -5.39453125 48.20703125 C-5.37096558 49.31461792 -5.37096558 49.31461792 -5.34692383 50.44458008 C-5.7848651 53.00724287 -6.62663614 53.89637221 -8.6875 55.4375 C-11.25 55.3125 -11.25 55.3125 -13.6875 54.4375 C-15.8176673 51.24224905 -15.94195392 50.40870388 -15.9621582 46.73828125 C-15.97169022 45.78719482 -15.98122223 44.8361084 -15.99104309 43.85620117 C-15.99013168 42.83115479 -15.98922028 41.8061084 -15.98828125 40.75 C-15.99256638 39.69594971 -15.9968515 38.64189941 -16.00126648 37.5559082 C-16.0070112 35.32666747 -16.007509 33.09740798 -16.00317383 30.86816406 C-16.00001235 27.45084815 -16.02347718 24.03439642 -16.04882812 20.6171875 C-16.05110088 18.4531261 -16.05180473 16.28906236 -16.05078125 14.125 C-16.059991 13.09995361 -16.06920074 12.07490723 -16.07868958 11.01879883 C-16.07246078 10.0677124 -16.06623199 9.11662598 -16.05981445 8.13671875 C-16.06044388 7.29971436 -16.0610733 6.46270996 -16.0617218 5.6003418 C-14.74237891 -2.02489526 -5.87286613 -0.03532068 0 0 Z " fill="#0B59CE" transform="translate(678.6875,64.5625)"/>
<path d="M0 0 C3.1875 0.375 3.1875 0.375 5.10253906 2.30688477 C7.81095983 6.29244961 9.75365922 10.45636488 11.734375 14.83984375 C12.15044006 15.75077286 12.56650513 16.66170197 12.99517822 17.60023499 C13.86944818 19.52079798 14.73996067 21.44307535 15.60693359 23.36694336 C16.934117 26.30501085 18.28076865 29.2336085 19.62890625 32.16210938 C20.47776207 34.03331045 21.3254579 35.90503828 22.171875 37.77734375 C22.57492859 38.6493895 22.97798218 39.52143524 23.39324951 40.41990662 C25.37903933 44.874111 26.82243702 48.38698623 26.1875 53.375 C25.1875 54.375 25.1875 54.375 22.125 54.4375 C21.155625 54.416875 20.18625 54.39625 19.1875 54.375 C18.34930842 52.75250059 17.5170884 51.12691503 16.6875 49.5 C16.2234375 48.59507813 15.759375 47.69015625 15.28125 46.7578125 C14.1875 44.375 14.1875 44.375 14.1875 42.375 C4.9475 42.375 -4.2925 42.375 -13.8125 42.375 C-14.3075 44.85 -14.3075 44.85 -14.8125 47.375 C-17.38392857 52.94642857 -17.38392857 52.94642857 -18.8125 54.375 C-21.8125 54.5 -21.8125 54.5 -24.8125 54.375 C-25.1425 54.045 -25.4725 53.715 -25.8125 53.375 C-25.38607314 48.40948762 -24.20414605 44.43170179 -22.15234375 39.91015625 C-21.88654007 39.31885422 -21.62073639 38.72755219 -21.34687805 38.11833191 C-20.49039974 36.22041405 -19.62081318 34.32887793 -18.75 32.4375 C-18.15747245 31.13462429 -17.56535155 29.83156356 -16.97363281 28.52832031 C-4.22757487 0.56367665 -4.22757487 0.56367665 0 0 Z " fill="#0958CD" transform="translate(826.8125,64.625)"/>
<path d="M0 0 C3 0.25 3 0.25 5 2.25 C5.22705078 4.31298828 5.22705078 4.31298828 5.1953125 6.8203125 C5.19031738 7.62742676 5.18532227 8.43454102 5.18017578 9.26611328 C5.15286377 10.80501221 5.15286377 10.80501221 5.125 12.375 C5.08375 15.63375 5.0425 18.8925 5 22.25 C13.91 22.25 22.82 22.25 32 22.25 C31.92092297 15.75788924 31.92092297 15.75788924 31.81982422 9.26611328 C31.8148291 8.45899902 31.80983398 7.65188477 31.8046875 6.8203125 C31.78897705 5.57918701 31.78897705 5.57918701 31.77294922 4.31298828 C32 2.25 32 2.25 34 0.25 C37 0 37 0 40 0.25 C42.50944305 2.75944305 42.2525033 3.56764087 42.25878906 7.03515625 C42.26509338 8.0295874 42.27139771 9.02401855 42.27789307 10.04858398 C42.2738446 11.12567627 42.26979614 12.20276855 42.265625 13.3125 C42.26849518 14.96584351 42.26849518 14.96584351 42.27142334 16.65258789 C42.27278612 18.98616768 42.26908322 21.31975503 42.26074219 23.65332031 C42.25004421 27.23519847 42.26063458 30.81657503 42.2734375 34.3984375 C42.27211592 36.66145945 42.26955357 38.92448108 42.265625 41.1875 C42.26967346 42.26459229 42.27372192 43.34168457 42.27789307 44.45141602 C42.27158875 45.44584717 42.26528442 46.44027832 42.25878906 47.46484375 C42.25719788 48.34261475 42.25560669 49.22038574 42.25396729 50.12475586 C42 52.25 42 52.25 40 54.25 C37 54.5 37 54.5 34 54.25 C32 52.25 32 52.25 31.77294922 50.09521484 C31.78342285 49.22590332 31.79389648 48.3565918 31.8046875 47.4609375 C31.80968262 46.61321777 31.81467773 45.76549805 31.81982422 44.89208984 C31.83803223 43.8139502 31.85624023 42.73581055 31.875 41.625 C31.91625 38.20125 31.9575 34.7775 32 31.25 C23.09 31.25 14.18 31.25 5 31.25 C5.11834352 37.65224439 5.11834352 37.65224439 5.27026367 44.05371094 C5.27775635 44.85583008 5.28524902 45.65794922 5.29296875 46.484375 C5.31653442 47.70979004 5.31653442 47.70979004 5.34057617 48.95996094 C4.92379459 51.76240627 3.83804852 53.13847021 2 55.25 C-0.9375 54.875 -0.9375 54.875 -4 54.25 C-5.2236065 51.802787 -5.13338365 50.20054445 -5.14526367 47.46484375 C-5.15164352 46.4704126 -5.15802338 45.47598145 -5.16459656 44.45141602 C-5.16570938 43.37432373 -5.1668222 42.29723145 -5.16796875 41.1875 C-5.17296135 39.53415649 -5.17296135 39.53415649 -5.17805481 37.84741211 C-5.18312393 35.51383889 -5.18546314 33.18025841 -5.18530273 30.84667969 C-5.18749093 27.26485346 -5.20565169 23.68333425 -5.22460938 20.1015625 C-5.22754287 17.83854273 -5.22952796 15.57552148 -5.23046875 13.3125 C-5.23765427 12.23540771 -5.24483978 11.15831543 -5.25224304 10.04858398 C-5.24916641 9.05415283 -5.24608978 8.05972168 -5.24291992 7.03515625 C-5.24434494 6.15738525 -5.24576996 5.27961426 -5.24723816 4.37524414 C-4.82624461 0.75640928 -3.47818295 0.28984858 0 0 Z " fill="#0B59CE" transform="translate(479,64.75)"/>
<path d="M0 0 C0.75152344 0.00394775 1.50304687 0.00789551 2.27734375 0.01196289 C8.17928955 0.16528518 13.24265787 1.05515787 17.625 5.4375 C17.75 7.9375 17.75 7.9375 17.625 10.4375 C17.295 10.7675 16.965 11.0975 16.625 11.4375 C13.12765772 11.04890641 9.96711739 10.55153913 6.625 9.4375 C4.83620198 9.3184314 3.0427144 9.26227887 1.25 9.25 C0.31414063 9.23582031 -0.62171875 9.22164062 -1.5859375 9.20703125 C-4.53618154 9.45081892 -6.69864112 10.20637492 -9.375 11.4375 C-10.14022801 14.79208155 -10.14022801 14.79208155 -10.375 18.4375 C-8.35313188 21.18624981 -6.39959463 21.94359291 -3.13671875 22.68359375 C-2.31623047 22.88146484 -1.49574219 23.07933594 -0.65039062 23.28320312 C1.06288492 23.67499368 2.77642365 24.06563529 4.49023438 24.45507812 C10.98469984 26.02410848 15.7697646 27.6546469 19.625 33.4375 C20.31984389 38.58419251 20.20952659 43.0979599 18.125 47.875 C12.54660041 53.59285958 5.76984707 55.56463965 -2.0625 55.6875 C-8.78313458 55.63005868 -13.99974489 54.1662892 -19.9375 51.125 C-21.375 49.4375 -21.375 49.4375 -21.625 46.25 C-21.5425 45.321875 -21.46 44.39375 -21.375 43.4375 C-19.25 42.75 -19.25 42.75 -16.375 42.4375 C-15.05242188 43.15679687 -15.05242188 43.15679687 -13.703125 43.890625 C-9.79764139 45.70584978 -6.46901537 45.91805118 -2.25 45.875 C-1.54746094 45.89498047 -0.84492187 45.91496094 -0.12109375 45.93554688 C3.36936055 45.93224777 5.28625673 45.69249099 8.10546875 43.5703125 C9.84162678 41.52403207 9.84162678 41.52403207 9.8125 38.875 C8.39058241 35.95632705 6.98614961 35.22429251 3.98828125 34.11328125 C1.03846934 33.26978132 -1.93738671 32.64116707 -4.9375 32 C-11.23835184 30.60382962 -14.86557229 29.19787048 -19.25 24.375 C-21.03538891 19.71315118 -21.24047761 15.34890955 -20.375 10.4375 C-16.10561534 2.30953057 -8.68045376 -0.11618749 0 0 Z " fill="#0B59CE" transform="translate(627.375,64.5625)"/>
<path d="M0 0 C5.07978957 2.73289591 7.79926262 5.66641496 9.5625 11.25 C9.645 12.11625 9.7275 12.9825 9.8125 13.875 C9.93625 15.091875 10.06 16.30875 10.1875 17.5625 C10.09451526 23.00727332 7.86653324 27.45407208 4.8125 31.875 C-0.39093831 36.42800853 -5.3595091 36.49553351 -12.15625 36.25390625 C-16.20127034 35.74827871 -18.30018162 34.76231838 -21.1875 31.875 C-25.96869321 24.9050138 -27.11205585 19.25904052 -26.1875 10.875 C-24.06079895 5.17324114 -20.52547315 1.77607237 -15.1875 -1.125 C-9.53797189 -3.00817604 -5.33996073 -2.45732706 0 0 Z " fill="#707070" transform="translate(529.1875,150.125)"/>
<path d="M0 0 C0.83466797 -0.02900391 1.66933594 -0.05800781 2.52929688 -0.08789062 C9.38103847 -0.15731591 14.72832586 1.31058502 19.8125 6.06640625 C23.67419558 12.27461824 24.08539046 18.29753592 22.4609375 25.39453125 C20.52840539 30.73809895 16.8027832 33.62835387 12.02807617 36.43481445 C9.66520755 37.4268164 7.98008847 37.55662242 5.42578125 37.54296875 C4.58595703 37.54103516 3.74613281 37.53910156 2.88085938 37.53710938 C1.57858398 37.51874023 1.57858398 37.51874023 0.25 37.5 C-0.62978516 37.49935547 -1.50957031 37.49871094 -2.41601562 37.49804688 C-8.92209943 37.45290057 -8.92209943 37.45290057 -10.0625 36.3125 C-10.16341475 33.73060554 -10.20221499 31.176035 -10.1953125 28.59375 C-10.19626923 27.82067505 -10.19722595 27.0476001 -10.19821167 26.25109863 C-10.19889341 24.61352456 -10.19703957 22.97594781 -10.19287109 21.33837891 C-10.18752271 18.82318079 -10.19281626 16.30816127 -10.19921875 13.79296875 C-10.19855797 12.20572877 -10.1972768 10.6184889 -10.1953125 9.03125 C-10.19733673 8.27396606 -10.19936096 7.51668213 -10.20144653 6.7364502 C-10.16522087 -1.27856569 -7.14849359 0.0802 0 0 Z " fill="#707070" transform="translate(662.0625,148.6875)"/>
<path d="M0 0 C13.49905577 0.03216392 13.49905577 0.03216392 18.703125 4.90234375 C23.23858147 9.91465896 24.29710049 13.90452053 24.21875 20.61328125 C23.64360743 26.00524283 21.34888147 29.83861853 17.5625 33.625 C11.84903649 37.16190598 6.64998097 37.54319023 0.125 37.4375 C-1.03805664 37.4365332 -1.03805664 37.4365332 -2.22460938 37.43554688 C-7.921813 37.390687 -7.921813 37.390687 -9.0625 36.25 C-9.16341475 33.66810554 -9.20221499 31.113535 -9.1953125 28.53125 C-9.19626923 27.75817505 -9.19722595 26.9851001 -9.19821167 26.18859863 C-9.19889341 24.55102456 -9.19703957 22.91344781 -9.19287109 21.27587891 C-9.18752271 18.76068079 -9.19281626 16.24566127 -9.19921875 13.73046875 C-9.19855797 12.14322877 -9.1972768 10.5559889 -9.1953125 8.96875 C-9.19733673 8.21146606 -9.19936096 7.45418213 -9.20144653 6.6739502 C-9.16710034 -0.92522656 -6.88053547 0.02373839 0 0 Z " fill="#6D6D6D" transform="translate(273.0625,148.75)"/>
<path d="M0 0 C3 2.0625 3 2.0625 4 3.0625 C4.1875 5.5 4.1875 5.5 4 8.0625 C3.34 8.7225 2.68 9.3825 2 10.0625 C-1.1806179 9.77335292 -3.87935854 9.10708489 -6.875 8 C-12.15010855 6.41746743 -16.77338251 6.15411552 -21.75 8.5625 C-25.76802558 11.2013406 -27.70478205 14.47942109 -29 19.0625 C-30.04612464 26.37458771 -29.11274011 32.84826573 -25 39.0625 C-21.39592006 42.66657994 -18.50021594 43.32413614 -13.5625 43.5 C-8.64988095 43.3398059 -5.39672912 42.12627081 -1 40.0625 C1.28867185 40.30341283 2.38430857 40.44680857 4 42.0625 C4.5625 44.3125 4.5625 44.3125 4 47.0625 C-2.27948898 52.54943212 -9.06289337 53.42393497 -17.1484375 53.34765625 C-23.4462371 52.71787629 -29.65555713 49.6483008 -34 45.0625 C-39.42485918 35.70770022 -40.80185428 27.78318187 -40 17.0625 C-39.1037723 13.71905988 -37.82803073 10.98990586 -36 8.0625 C-35.46375 7.155 -34.9275 6.2475 -34.375 5.3125 C-25.62020164 -2.98151949 -11.04990133 -5.42522231 0 0 Z " fill="#0958CD" transform="translate(286,66.9375)"/>
<path d="M0 0 C0.89912109 -0.02900391 1.79824219 -0.05800781 2.72460938 -0.08789062 C8.5827774 -0.14376457 11.84860408 0.42552116 16.3125 4.3125 C17.84464888 7.37679776 17.54188548 9.9290642 17.3125 13.3125 C15.8125 16.25 15.8125 16.25 14.3125 18.3125 C14.9725 18.993125 15.6325 19.67375 16.3125 20.375 C18.8449171 24.09448762 19.01099726 25.888684 18.3125 30.3125 C16.51354326 33.27978289 14.46549143 35.73600428 11.3125 37.3125 C9.73013913 37.40822552 8.1438461 37.44324047 6.55859375 37.4453125 C5.62208984 37.44660156 4.68558594 37.44789063 3.72070312 37.44921875 C2.74037109 37.44535156 1.76003906 37.44148438 0.75 37.4375 C-0.72629883 37.44330078 -0.72629883 37.44330078 -2.23242188 37.44921875 C-3.16763672 37.44792969 -4.10285156 37.44664062 -5.06640625 37.4453125 C-5.9282251 37.44418457 -6.79004395 37.44305664 -7.67797852 37.44189453 C-9.6875 37.3125 -9.6875 37.3125 -10.6875 36.3125 C-10.78841475 33.73060554 -10.82721499 31.176035 -10.8203125 28.59375 C-10.82126923 27.82067505 -10.82222595 27.0476001 -10.82321167 26.25109863 C-10.82389341 24.61352456 -10.82203957 22.97594781 -10.81787109 21.33837891 C-10.81252271 18.82318079 -10.81781626 16.30816127 -10.82421875 13.79296875 C-10.82355797 12.20572877 -10.8222768 10.6184889 -10.8203125 9.03125 C-10.82233673 8.27396606 -10.82436096 7.51668213 -10.82644653 6.7364502 C-10.78894158 -1.56161025 -7.28821899 0.07671809 0 0 Z " fill="#6D6D6D" transform="translate(468.6875,148.6875)"/>
<path d="M0 0 C4.57578439 2.69163788 6.53038774 5.90366322 8.1875 10.875 C9.03643765 19.52203634 8.5106817 26.75859794 3.1875 33.875 C-0.9857622 37.17478872 -5.23847329 37.40912262 -10.4140625 37.21484375 C-14.81546233 36.59119263 -17.34819792 34.73740921 -20.0625 31.28515625 C-24.10009348 24.65396974 -23.7087243 16.86824966 -22.375 9.4375 C-21.02397883 4.97913014 -18.7892576 2.18748998 -14.8359375 -0.28125 C-9.75577312 -2.3996197 -5.1323706 -1.51447001 0 0 Z " fill="#FAFCFE" transform="translate(571.8125,74.125)"/>
<path d="M0 0 C0.75341675 0.00142502 1.5068335 0.00285004 2.28308105 0.00431824 C3.13736694 0.00124161 3.99165283 -0.00183502 4.87182617 -0.00500488 C5.795802 0.00218063 6.71977783 0.00936615 7.67175293 0.01676941 C8.61860962 0.01722763 9.56546631 0.01768585 10.54101562 0.01815796 C12.54505667 0.02118206 14.54909534 0.02907306 16.55310059 0.04142761 C19.62789194 0.05966337 22.70238195 0.06193747 25.77722168 0.06169128 C27.72123471 0.06660718 29.66524569 0.07243582 31.60925293 0.07926941 C32.99521667 0.08093864 32.99521667 0.08093864 34.40917969 0.0826416 C35.69060852 0.09221138 35.69060852 0.09221138 36.9979248 0.10197449 C38.12804993 0.10769218 38.12804993 0.10769218 39.28100586 0.11352539 C41.14050293 0.24723816 41.14050293 0.24723816 43.14050293 1.24723816 C43.26550293 4.12223816 43.26550293 4.12223816 43.14050293 7.24723816 C41.14050293 9.24723816 41.14050293 9.24723816 37.44519043 9.44255066 C35.96850185 9.42924716 34.49187935 9.40538651 33.01550293 9.37223816 C32.26140137 9.36321472 31.5072998 9.35419128 30.73034668 9.34489441 C28.86693039 9.32130686 27.003677 9.28543535 25.14050293 9.24723816 C25.15621338 10.49859558 25.17192383 11.749953 25.18811035 13.03923035 C25.24242398 17.68337056 25.27685832 22.32748271 25.30529785 26.97184753 C25.32038119 28.98166119 25.34085065 30.99144195 25.36682129 33.00114441 C25.40322437 35.89054992 25.42023381 38.77952012 25.43347168 41.66911316 C25.44895554 42.56716675 25.46443939 43.46522034 25.48039246 44.39048767 C25.48208324 50.66261349 25.48208324 50.66261349 23.62219238 53.84587097 C23.13323486 54.30832214 22.64427734 54.77077332 22.14050293 55.24723816 C19.20300293 54.87223816 19.20300293 54.87223816 16.14050293 54.24723816 C14.97545303 51.91713836 15.01956713 50.57476739 15.02697754 47.98112488 C15.02705307 47.10036285 15.0271286 46.21960083 15.02720642 45.31214905 C15.03236771 44.36002533 15.03752899 43.40790161 15.04284668 42.42692566 C15.04426163 41.45312958 15.04567657 40.4793335 15.0471344 39.47602844 C15.0527432 36.35806743 15.06529719 33.24017756 15.07800293 30.12223816 C15.0830168 28.01156211 15.0875799 25.90088494 15.0916748 23.79020691 C15.10271548 18.60919295 15.1194622 13.42822063 15.14050293 8.24723816 C13.85272949 8.25883972 12.56495605 8.27044128 11.23815918 8.28239441 C9.55977521 8.29177086 7.88138967 8.30087121 6.20300293 8.30973816 C4.92779785 8.32230652 4.92779785 8.32230652 3.62683105 8.33512878 C2.81794434 8.33835144 2.00905762 8.3415741 1.17565918 8.34489441 C0.42679443 8.35013123 -0.32207031 8.35536804 -1.09362793 8.36076355 C-2.85949707 8.24723816 -2.85949707 8.24723816 -3.85949707 7.24723816 C-4.04699707 4.80973816 -4.04699707 4.80973816 -3.85949707 2.24723816 C-1.85949707 0.24723816 -1.85949707 0.24723816 0 0 Z " fill="#0E5BCE" transform="translate(747.8594970703125,64.75276184082031)"/>
<path d="M0 0 C0.87430664 -0.00630432 1.74861328 -0.01260864 2.64941406 -0.019104 C4.06818848 -0.01303131 4.06818848 -0.01303131 5.515625 -0.00683594 C6.48467773 -0.00874939 7.45373047 -0.01066284 8.45214844 -0.01263428 C10.50325785 -0.01399673 12.55437586 -0.01029612 14.60546875 -0.00195312 C17.75280039 0.00874547 20.8995612 -0.00184647 24.046875 -0.01464844 C26.0364596 -0.01332685 28.02604384 -0.01076448 30.015625 -0.00683594 C30.96147461 -0.0108844 31.90732422 -0.01493286 32.88183594 -0.019104 C33.75614258 -0.01279968 34.63044922 -0.00649536 35.53125 0 C36.68802246 0.00238678 36.68802246 0.00238678 37.86816406 0.00482178 C39.765625 0.25878906 39.765625 0.25878906 41.765625 2.25878906 C41.43591021 5.55593699 41.1429411 6.88147296 38.765625 9.25878906 C36.02076907 9.40386601 33.38081957 9.44531329 30.640625 9.38378906 C29.88652344 9.37476562 29.13242187 9.36574219 28.35546875 9.35644531 C26.49205246 9.33285776 24.62879907 9.29698625 22.765625 9.25878906 C22.77609863 10.55091309 22.78657227 11.84303711 22.79736328 13.17431641 C22.83349219 17.95635216 22.85649951 22.73837579 22.87548828 27.52050781 C22.88556212 29.59246853 22.89922166 31.66441499 22.91650391 33.73632812 C22.94069164 36.7099967 22.95209408 39.68347776 22.9609375 42.65722656 C22.97126007 43.5874765 22.98158264 44.51772644 22.99221802 45.47616577 C22.99236908 46.33690704 22.99252014 47.19764832 22.99267578 48.08447266 C22.997117 48.84392181 23.00155823 49.60337097 23.00613403 50.38583374 C22.765625 52.25878906 22.765625 52.25878906 20.765625 54.25878906 C17.765625 54.50878906 17.765625 54.50878906 14.765625 54.25878906 C12.765625 52.25878906 12.765625 52.25878906 12.52511597 50.34786987 C12.5317778 49.1820488 12.5317778 49.1820488 12.53857422 47.99267578 C12.53872528 47.11191376 12.53887634 46.23115173 12.53903198 45.32369995 C12.54935455 44.37157623 12.55967712 43.41945251 12.5703125 42.43847656 C12.5731424 41.46468048 12.57597229 40.4908844 12.57888794 39.48757935 C12.59010587 36.36952558 12.6152133 33.25175639 12.640625 30.13378906 C12.65065272 28.02311612 12.65977893 25.91243869 12.66796875 23.80175781 C12.69005047 18.62065815 12.72459126 13.4397719 12.765625 8.25878906 C6.825625 8.25878906 0.885625 8.25878906 -5.234375 8.25878906 C-5.564375 6.27878906 -5.894375 4.29878906 -6.234375 2.25878906 C-3.8281128 -0.14747314 -3.28330323 0.00677447 0 0 Z " fill="#0B5ACE" transform="translate(336.234375,64.7412109375)"/>
<path d="M0 0 C3.98062754 0.60084944 5.23986142 2.03160754 7.6640625 5.1484375 C10.39610616 9.04580784 13.0120239 13.0151478 15.578125 17.0234375 C17.07556795 19.57990773 17.07556795 19.57990773 19.3125 20.5 C19.539375 19.81292969 19.76625 19.12585938 20 18.41796875 C21.62215587 14.81156864 23.87317728 11.88953137 26.3125 8.8125 C26.76367188 8.23177734 27.21484375 7.65105469 27.6796875 7.05273438 C29.47186899 4.75948439 31.25271831 2.55978169 33.3125 0.5 C36.9375 0.875 36.9375 0.875 40.3125 1.5 C40.05603466 7.87059902 36.57573106 11.8072846 32.875 16.6875 C31.68865314 18.28504566 30.50244925 19.88269749 29.31640625 21.48046875 C28.78861572 22.18067139 28.2608252 22.88087402 27.71704102 23.60229492 C25.01893488 27.24776319 24.06413426 29.17672804 24.00390625 33.68359375 C23.97876953 34.69357422 23.95363281 35.70355469 23.92773438 36.74414062 C23.89264362 38.86908067 23.86137917 40.99408743 23.83398438 43.11914062 C23.80755859 44.13041016 23.78113281 45.14167969 23.75390625 46.18359375 C23.73372437 47.56889282 23.73372437 47.56889282 23.71313477 48.98217773 C23.24806756 51.904931 22.24991862 53.30558671 20.3125 55.5 C17.375 55.125 17.375 55.125 14.3125 54.5 C13.08499851 52.04499701 13.30185964 50.67290953 13.453125 47.94140625 C13.86236597 32.81904007 10.4782678 23.93994544 0.83056641 12.33325195 C-3.64797831 6.92485822 -3.64797831 6.92485822 -3.9375 3.8125 C-3.57913962 0.49766647 -3.32087498 0.6178372 0 0 Z " fill="#0857CD" transform="translate(390.6875,64.5)"/>
<path d="M0 0 C3.37453898 -0.14611313 6.74825766 -0.23433467 10.125 -0.3125 C11.07632813 -0.35439453 12.02765625 -0.39628906 13.0078125 -0.43945312 C20.96505739 -0.57759974 20.96505739 -0.57759974 24.6171875 2.39453125 C27.43018347 5.47038094 27.93766621 6.17407731 28.25 10.3125 C27.88591964 15.68268528 25.73081181 18.36324227 22 22 C22.34933594 22.49628906 22.69867187 22.99257812 23.05859375 23.50390625 C26.14110751 28.10584605 27.65389941 31.46239061 28 37 C25.734375 37.3984375 25.734375 37.3984375 23 37 C21.5183683 34.86187295 20.39695802 32.92954728 19.25 30.625 C16.70018912 25.89166609 16.70018912 25.89166609 12.484375 22.69140625 C10.27297958 22.2428685 8.25363555 21.97391626 6 22 C6.01160156 22.99902344 6.02320313 23.99804688 6.03515625 25.02734375 C6.04417969 26.31769531 6.05320312 27.60804688 6.0625 28.9375 C6.07410156 30.22527344 6.08570313 31.51304687 6.09765625 32.83984375 C6 36 6 36 5 37 C3.33382885 37.04063832 1.66611905 37.042721 0 37 C-1.49641368 34.00717264 -1.14222979 30.93721394 -1.1328125 27.65625 C-1.13376923 26.93135376 -1.13472595 26.20645752 -1.13571167 25.45959473 C-1.13639243 23.92635003 -1.13454536 22.39310245 -1.13037109 20.85986328 C-1.12502134 18.50937442 -1.13031953 16.15907665 -1.13671875 13.80859375 C-1.13605795 12.32031208 -1.13477675 10.83203052 -1.1328125 9.34375 C-1.13483673 8.63851196 -1.13686096 7.93327393 -1.13894653 7.20666504 C-1.11496243 2.22992486 -1.11496243 2.22992486 0 0 Z " fill="#6E6E6E" transform="translate(606,149)"/>
<path d="M0 0 C2.5625 0.3125 2.5625 0.3125 4.20137024 1.56977844 C5.88636344 3.72715833 5.92751363 4.79598674 5.90307617 7.50854492 C5.90284958 8.34918991 5.90262299 9.1898349 5.90238953 10.05595398 C5.88690567 10.95916885 5.87142181 11.86238373 5.85546875 12.79296875 C5.85122391 13.72095779 5.84697906 14.64894684 5.84260559 15.60505676 C5.82580662 18.57033243 5.78815216 21.5349296 5.75 24.5 C5.73495474 26.50975581 5.72126606 28.51952227 5.70898438 30.52929688 C5.67845026 35.45750323 5.61973139 40.38424177 5.5625 45.3125 C13.8125 45.3125 22.0625 45.3125 30.5625 45.3125 C31.0575 48.7775 31.0575 48.7775 31.5625 52.3125 C28.65808341 55.21691659 26.49492155 54.57117736 22.4375 54.578125 C21.7347998 54.58003845 21.03209961 54.5819519 20.30810547 54.58392334 C18.82193646 54.58528475 17.33575555 54.58159132 15.84960938 54.57324219 C13.57134354 54.56254154 11.29386623 54.57313839 9.015625 54.5859375 C7.57291492 54.5846159 6.13020534 54.58205349 4.6875 54.578125 C3.37007812 54.57586914 2.05265625 54.57361328 0.6953125 54.57128906 C-2.4375 54.3125 -2.4375 54.3125 -4.4375 52.3125 C-4.69146729 50.18725586 -4.69146729 50.18725586 -4.69628906 47.52734375 C-4.70259338 46.5329126 -4.70889771 45.53848145 -4.71539307 44.51391602 C-4.7113446 43.43682373 -4.70729614 42.35973145 -4.703125 41.25 C-4.70503845 40.147771 -4.7069519 39.04554199 -4.70892334 37.90991211 C-4.71028612 35.57633232 -4.70658322 33.24274497 -4.69824219 30.90917969 C-4.68754421 27.32730153 -4.69813458 23.74592497 -4.7109375 20.1640625 C-4.70961592 17.90104055 -4.70705357 15.63801892 -4.703125 13.375 C-4.70717346 12.29790771 -4.71122192 11.22081543 -4.71539307 10.11108398 C-4.70908875 9.11665283 -4.70278442 8.12222168 -4.69628906 7.09765625 C-4.69469788 6.21988525 -4.69310669 5.34211426 -4.69146729 4.43774414 C-4.30410062 1.19618986 -3.17007641 0.40642005 0 0 Z " fill="#0E5BCE" transform="translate(873.4375,64.6875)"/>
<path d="M0 0 C1.26457031 -0.04350586 1.26457031 -0.04350586 2.5546875 -0.08789062 C8.52490398 -0.14814902 11.99512952 0.82410453 16.875 4.3125 C18.85198481 8.26646963 18.44569292 13.01369353 17.875 17.3125 C15.6734026 20.20933868 14.08905538 21.70547231 10.875 23.3125 C8.50097499 23.38366382 6.12499323 23.39659085 3.75 23.375 C2.46867188 23.36597656 1.18734375 23.35695312 -0.1328125 23.34765625 C-1.12023437 23.33605469 -2.10765625 23.32445312 -3.125 23.3125 C-3.11339844 24.15554687 -3.10179687 24.99859375 -3.08984375 25.8671875 C-3.07630859 27.51074219 -3.07630859 27.51074219 -3.0625 29.1875 C-3.05089844 30.27804688 -3.03929687 31.36859375 -3.02734375 32.4921875 C-3.125 35.3125 -3.125 35.3125 -4.125 37.3125 C-5.79111905 37.355221 -7.45882885 37.35313832 -9.125 37.3125 C-10.88572584 35.55177416 -10.25334784 33.2335371 -10.26394653 30.8885498 C-10.2619223 30.13126587 -10.25989807 29.37398193 -10.2578125 28.59375 C-10.25876923 27.82067505 -10.25972595 27.0476001 -10.26071167 26.25109863 C-10.26139341 24.61352456 -10.25953957 22.97594781 -10.25537109 21.33837891 C-10.25002271 18.82318079 -10.25531626 16.30816127 -10.26171875 13.79296875 C-10.26105797 12.20572877 -10.2597768 10.6184889 -10.2578125 9.03125 C-10.25983673 8.27396606 -10.26186096 7.51668213 -10.26394653 6.7364502 C-10.22732959 -1.36513564 -7.14468324 0.07973977 0 0 Z " fill="#6C6C6C" transform="translate(737.125,148.6875)"/>
<path d="M0 0 C1.2684375 0.2165625 1.2684375 0.2165625 2.5625 0.4375 C6.19983481 5.7191677 8.68066934 11.76359667 11.39794922 17.55786133 C12.00964445 18.8568564 12.62654978 20.15341029 13.24853516 21.44750977 C14.15114477 23.32568875 15.03811469 25.21054825 15.921875 27.09765625 C16.45264648 28.21793213 16.98341797 29.33820801 17.53027344 30.49243164 C18.56882937 33.45555845 18.74311174 34.59042271 17.5625 37.4375 C15.9125 37.4375 14.2625 37.4375 12.5625 37.4375 C11.2425 34.7975 9.9225 32.1575 8.5625 29.4375 C2.9525 29.4375 -2.6575 29.4375 -8.4375 29.4375 C-9.7575 32.0775 -11.0775 34.7175 -12.4375 37.4375 C-14.0875 37.4375 -15.7375 37.4375 -17.4375 37.4375 C-17.77597439 32.41663768 -16.73463695 29.13577236 -14.6640625 24.578125 C-14.38025726 23.94767273 -14.09645203 23.31722046 -13.80404663 22.66766357 C-13.20569375 21.34424151 -12.60196884 20.02323645 -11.99316406 18.70458984 C-11.06122662 16.68474013 -10.14654489 14.65774864 -9.234375 12.62890625 C-3.81042043 0.68392162 -3.81042043 0.68392162 0 0 Z " fill="#6D6D6D" transform="translate(571.4375,148.5625)"/>
<path d="M0 0 C1.2684375 0.2165625 1.2684375 0.2165625 2.5625 0.4375 C6.19983481 5.7191677 8.68066934 11.76359667 11.39794922 17.55786133 C12.00964445 18.8568564 12.62654978 20.15341029 13.24853516 21.44750977 C14.15114477 23.32568875 15.03811469 25.21054825 15.921875 27.09765625 C16.45264648 28.21793213 16.98341797 29.33820801 17.53027344 30.49243164 C18.56882937 33.45555845 18.74311174 34.59042271 17.5625 37.4375 C15.9125 37.4375 14.2625 37.4375 12.5625 37.4375 C11.2425 34.7975 9.9225 32.1575 8.5625 29.4375 C2.9525 29.4375 -2.6575 29.4375 -8.4375 29.4375 C-9.7575 32.0775 -11.0775 34.7175 -12.4375 37.4375 C-14.0875 37.4375 -15.7375 37.4375 -17.4375 37.4375 C-17.77597439 32.41663768 -16.73463695 29.13577236 -14.6640625 24.578125 C-14.38025726 23.94767273 -14.09645203 23.31722046 -13.80404663 22.66766357 C-13.20569375 21.34424151 -12.60196884 20.02323645 -11.99316406 18.70458984 C-11.06122662 16.68474013 -10.14654489 14.65774864 -9.234375 12.62890625 C-3.81042043 0.68392162 -3.81042043 0.68392162 0 0 Z " fill="#6D6D6D" transform="translate(329.4375,148.5625)"/>
<path d="M0 0 C2.75 0.5625 2.75 0.5625 5.0546875 3.80078125 C8.38956731 9.41096991 10.99967799 15.34649046 13.625 21.3125 C14.13546875 22.43527344 14.6459375 23.55804688 15.171875 24.71484375 C15.64882813 25.79378906 16.12578125 26.87273437 16.6171875 27.984375 C17.05144043 28.95987305 17.48569336 29.93537109 17.93310547 30.94042969 C18.79207407 33.69754945 18.76842587 34.90689761 17.75 37.5625 C15.4375 37.4375 15.4375 37.4375 12.75 36.5625 C9.75 31.70043103 9.75 31.70043103 9.75 28.5625 C3.81 28.8925 -2.13 29.2225 -8.25 29.5625 C-9.57 32.2025 -10.89 34.8425 -12.25 37.5625 C-13.9 37.5625 -15.55 37.5625 -17.25 37.5625 C-16.7123065 32.38926178 -15.49367227 28.29715188 -13.34375 23.5703125 C-13.05898804 22.9389035 -12.77422607 22.30749451 -12.48083496 21.6569519 C-11.88314654 20.33581811 -11.28124221 19.0165841 -10.67529297 17.69921875 C-9.74463035 15.67582561 -8.82633976 13.64717233 -7.91015625 11.6171875 C-2.97591634 0.74397909 -2.97591634 0.74397909 0 0 Z " fill="#6D6D6D" transform="translate(786.25,148.4375)"/>
<path d="M0 0 C4.2352497 1.51385142 6.10228061 4.54245045 8.74609375 8.06640625 C9.49536133 9.03223633 9.49536133 9.03223633 10.25976562 10.01757812 C13.83010862 14.63829299 17.30516771 19.33267153 20.80859375 24.00390625 C21.13859375 16.08390625 21.46859375 8.16390625 21.80859375 0.00390625 C23.45859375 0.00390625 25.10859375 0.00390625 26.80859375 0.00390625 C27.80859375 1.00390625 27.80859375 1.00390625 27.92211914 4.33032227 C27.92196004 5.80616181 27.91626689 7.28200694 27.90625 8.7578125 C27.90483505 9.53325912 27.9034201 10.30870575 27.90196228 11.10765076 C27.8963472 13.59394119 27.88379221 16.08014285 27.87109375 18.56640625 C27.86608069 20.24804558 27.86151745 21.92968631 27.85742188 23.61132812 C27.84637288 27.74222191 27.8290982 31.87304901 27.80859375 36.00390625 C25.33359375 36.49890625 25.33359375 36.49890625 22.80859375 37.00390625 C16.17699678 29.19551232 9.89211246 21.24609289 3.80859375 13.00390625 C3.47859375 20.59390625 3.14859375 28.18390625 2.80859375 36.00390625 C0.33359375 36.49890625 0.33359375 36.49890625 -2.19140625 37.00390625 C-3.95213209 35.24318041 -3.31975409 32.92494335 -3.33035278 30.57995605 C-3.32832855 29.82267212 -3.32630432 29.06538818 -3.32421875 28.28515625 C-3.32517548 27.5120813 -3.3261322 26.73900635 -3.32711792 25.94250488 C-3.32779966 24.30493081 -3.32594582 22.66735406 -3.32177734 21.02978516 C-3.31642896 18.51458704 -3.32172251 15.99956752 -3.328125 13.484375 C-3.32746422 11.89713502 -3.32618305 10.30989515 -3.32421875 8.72265625 C-3.32624298 7.96537231 -3.32826721 7.20808838 -3.33035278 6.42785645 C-3.30132724 0.00588472 -3.30132724 0.00588472 0 0 Z " fill="#6A6A6A" transform="translate(824.19140625,148.99609375)"/>
<path d="M0 0 C3 2 3 2 4 5 C4.533983 10.87381301 4.82218732 17.185311 1 22 C-6.48572738 28.88008601 -14.69811887 33.08087193 -24 37 C-25.41679609 37.68723325 -26.83347525 38.37470764 -28.25 39.0625 C-32.68878655 41.02789142 -37.29572889 42.41582251 -41.9375 43.8125 C-43.07590332 44.15970093 -43.07590332 44.15970093 -44.23730469 44.51391602 C-49.75681214 46.12159393 -49.75681214 46.12159393 -52 45 C-51.12859375 44.52691406 -50.2571875 44.05382812 -49.359375 43.56640625 C-29.78709788 32.77067454 -12.92693693 18.33943492 0 0 Z " fill="#0857CD" transform="translate(185,113)"/>
<path d="M0 0 C1.65 0 3.3 0 5 0 C5 4.95 5 9.9 5 15 C11.27 15 17.54 15 24 15 C23.979375 12.710625 23.95875 10.42125 23.9375 8.0625 C23.91629132 5.70833668 23.92728259 3.35313555 24 1 C25 0 25 0 27.5 -0.125 C30 0 30 0 31 1 C31.10091475 3.58189446 31.13971499 6.136465 31.1328125 8.71875 C31.13376923 9.49182495 31.13472595 10.2648999 31.13571167 11.06140137 C31.13639341 12.69897544 31.13453957 14.33655219 31.13037109 15.97412109 C31.12502271 18.48931921 31.13031626 21.00433873 31.13671875 23.51953125 C31.13605797 25.10677123 31.1347768 26.6940111 31.1328125 28.28125 C31.13483673 29.03853394 31.13686096 29.79581787 31.13894653 30.5760498 C31.11495132 35.88504868 31.11495132 35.88504868 30 37 C28.35 37 26.7 37 25 37 C25 31.72 25 26.44 25 21 C18.4 21 11.8 21 5 21 C5 26.28 5 31.56 5 37 C3.35 37 1.7 37 0 37 C-1.76072584 35.23927416 -1.12834784 32.9210371 -1.13894653 30.5760498 C-1.1369223 29.81876587 -1.13489807 29.06148193 -1.1328125 28.28125 C-1.13376923 27.50817505 -1.13472595 26.7351001 -1.13571167 25.93859863 C-1.13639341 24.30102456 -1.13453957 22.66344781 -1.13037109 21.02587891 C-1.12502271 18.51068079 -1.13031626 15.99566127 -1.13671875 13.48046875 C-1.13605797 11.89322877 -1.1347768 10.3059889 -1.1328125 8.71875 C-1.13483673 7.96146606 -1.13686096 7.20418213 -1.13894653 6.4239502 C-1.11495132 1.11495132 -1.11495132 1.11495132 0 0 Z " fill="#6C6C6C" transform="translate(408,149)"/>
<path d="M0 0 C3 0.25 3 0.25 5 2.25 C5.25396729 4.37524414 5.25396729 4.37524414 5.25878906 7.03515625 C5.26509338 8.0295874 5.27139771 9.02401855 5.27789307 10.04858398 C5.2738446 11.12567627 5.26979614 12.20276855 5.265625 13.3125 C5.26753845 14.414729 5.2694519 15.51695801 5.27142334 16.65258789 C5.27278612 18.98616768 5.26908322 21.31975503 5.26074219 23.65332031 C5.25004421 27.23519847 5.26063458 30.81657503 5.2734375 34.3984375 C5.27211592 36.66145945 5.26955357 38.92448108 5.265625 41.1875 C5.26967346 42.26459229 5.27372192 43.34168457 5.27789307 44.45141602 C5.27158875 45.44584717 5.26528442 46.44027832 5.25878906 47.46484375 C5.25640228 48.78150024 5.25640228 48.78150024 5.25396729 50.12475586 C5 52.25 5 52.25 3 54.25 C0 54.5 0 54.5 -3 54.25 C-5.50944305 51.74055695 -5.2525033 50.93235913 -5.25878906 47.46484375 C-5.26509338 46.4704126 -5.27139771 45.47598145 -5.27789307 44.45141602 C-5.2738446 43.37432373 -5.26979614 42.29723145 -5.265625 41.1875 C-5.26753845 40.085271 -5.2694519 38.98304199 -5.27142334 37.84741211 C-5.27278612 35.51383232 -5.26908322 33.18024497 -5.26074219 30.84667969 C-5.25004421 27.26480153 -5.26063458 23.68342497 -5.2734375 20.1015625 C-5.27211592 17.83854055 -5.26955357 15.57551892 -5.265625 13.3125 C-5.26967346 12.23540771 -5.27372192 11.15831543 -5.27789307 10.04858398 C-5.27158875 9.05415283 -5.26528442 8.05972168 -5.25878906 7.03515625 C-5.25719788 6.15738525 -5.25560669 5.27961426 -5.25396729 4.37524414 C-4.82176607 0.75850625 -3.47994502 0.28999542 0 0 Z " fill="#0756CD" transform="translate(312,64.75)"/>
<path d="M0 0 C1.62109375 0.828125 1.62109375 0.828125 3.80859375 2.328125 C3.47859375 3.978125 3.14859375 5.628125 2.80859375 7.328125 C-2.06640625 6.453125 -2.06640625 6.453125 -3.19140625 5.328125 C-5.22522369 5.12847095 -5.22522369 5.12847095 -7.56640625 5.140625 C-8.75363281 5.11935547 -8.75363281 5.11935547 -9.96484375 5.09765625 C-12.47871958 5.18304991 -12.47871958 5.18304991 -15.19140625 7.328125 C-14.86140625 9.308125 -14.53140625 11.288125 -14.19140625 13.328125 C-13.16660156 13.54726562 -12.14179688 13.76640625 -11.0859375 13.9921875 C1.20598459 16.80554368 1.20598459 16.80554368 4.30859375 20.140625 C6.22017007 24.20272468 6.20193989 26.07067848 4.80859375 30.328125 C2.61867778 32.91110281 0.84027687 34.81228344 -2.19140625 36.328125 C-4.64431453 36.4790732 -7.04998634 36.55941064 -9.50390625 36.578125 C-10.82003906 36.60390625 -12.13617188 36.6296875 -13.4921875 36.65625 C-17.32622069 36.3161668 -19.18896845 35.67909044 -22.19140625 33.328125 C-23.00390625 31.140625 -23.00390625 31.140625 -23.19140625 29.328125 C-20.6363591 28.38181124 -19.55446569 28.1725281 -17.00390625 29.265625 C-13.11601816 30.73438272 -9.30910951 30.85247673 -5.19140625 30.328125 C-4.20140625 29.668125 -3.21140625 29.008125 -2.19140625 28.328125 C-2.68640625 25.853125 -2.68640625 25.853125 -3.19140625 23.328125 C-3.98804688 23.15796875 -4.7846875 22.9878125 -5.60546875 22.8125 C-18.36266791 19.89479508 -18.36266791 19.89479508 -22.62890625 14.515625 C-23.50465973 11.109917 -23.0827739 8.71532208 -22.19140625 5.328125 C-16.38644203 -1.51875587 -8.64587315 -2.65078464 0 0 Z " fill="#6F6F6F" transform="translate(385.19140625,149.671875)"/>
<path d="M0 0 C0.9583374 0.00523682 1.9166748 0.01047363 2.90405273 0.01586914 C4.45576172 0.02070313 4.45576172 0.02070313 6.03881836 0.02563477 C7.12743164 0.03401367 8.21604492 0.04239258 9.33764648 0.05102539 C10.97636719 0.05779297 10.97636719 0.05779297 12.64819336 0.06469727 C15.35723144 0.07652713 18.06616248 0.09300996 20.77514648 0.11352539 C20.77514648 1.76352539 20.77514648 3.41352539 20.77514648 5.11352539 C14.83514648 5.11352539 8.89514648 5.11352539 2.77514648 5.11352539 C2.77514648 8.41352539 2.77514648 11.71352539 2.77514648 15.11352539 C8.05514648 15.11352539 13.33514648 15.11352539 18.77514648 15.11352539 C19.10514648 16.76352539 19.43514648 18.41352539 19.77514648 20.11352539 C18.77514648 21.11352539 18.77514648 21.11352539 15.17749023 21.21118164 C13.68917781 21.20450759 12.20088216 21.19254722 10.71264648 21.17602539 C9.9540332 21.17151367 9.19541992 21.16700195 8.41381836 21.16235352 C6.53422777 21.15053219 4.6546775 21.13259617 2.77514648 21.11352539 C2.77514648 24.74352539 2.77514648 28.37352539 2.77514648 32.11352539 C8.71514648 32.11352539 14.65514648 32.11352539 20.77514648 32.11352539 C20.77514648 33.76352539 20.77514648 35.41352539 20.77514648 37.11352539 C16.96266222 37.14239775 13.15020579 37.16028031 9.33764648 37.17602539 C8.2490332 37.1844043 7.16041992 37.1927832 6.03881836 37.20141602 C5.0043457 37.20463867 3.96987305 37.20786133 2.90405273 37.21118164 C1.94571533 37.21641846 0.98737793 37.22165527 0 37.22705078 C-2.22485352 37.11352539 -2.22485352 37.11352539 -3.22485352 36.11352539 C-3.32576827 33.53163093 -3.3645685 30.97706039 -3.35766602 28.39477539 C-3.35862274 27.62170044 -3.35957947 26.84862549 -3.36056519 26.05212402 C-3.36124692 24.41454996 -3.35939308 22.7769732 -3.35522461 21.1394043 C-3.34987623 18.62420619 -3.35516978 16.10918666 -3.36157227 13.59399414 C-3.36091148 12.00675416 -3.35963032 10.41951429 -3.35766602 8.83227539 C-3.35969025 8.07499146 -3.36171448 7.31770752 -3.36380005 6.53747559 C-3.33502159 0.17017283 -3.33502159 0.17017283 0 0 Z " fill="#6D6D6D" transform="translate(874.224853515625,148.886474609375)"/>
<path d="M0 0 C3.0625 0.125 3.0625 0.125 5.0625 1.125 C5.08776692 8.51228102 5.1053316 15.89955098 5.11743164 23.28686523 C5.12247363 25.80216895 5.12930703 28.31746972 5.13793945 30.83276367 C5.15001094 34.43929775 5.15572949 38.04579323 5.16015625 41.65234375 C5.16531754 42.78461899 5.17047882 43.91689423 5.17579651 45.08348083 C5.17587204 46.12448441 5.17594757 47.16548798 5.17602539 48.23803711 C5.178246 49.15959091 5.18046661 50.08114471 5.18275452 51.03062439 C5.0625 53.125 5.0625 53.125 4.0625 54.125 C0.5625 54.25 0.5625 54.25 -2.9375 54.125 C-4.59158456 52.47091544 -4.06492355 50.52946108 -4.06689453 48.25390625 C-4.07004669 47.21613037 -4.07319885 46.17835449 -4.07644653 45.10913086 C-4.0744223 43.97999268 -4.07239807 42.85085449 -4.0703125 41.6875 C-4.07174759 39.96188843 -4.07174759 39.96188843 -4.07321167 38.20141602 C-4.07389369 35.76350856 -4.0720379 33.3255993 -4.06787109 30.88769531 C-4.06252317 27.14123482 -4.06781539 23.39489423 -4.07421875 19.6484375 C-4.07355797 17.28645807 -4.07227682 14.92447871 -4.0703125 12.5625 C-4.07233673 11.43336182 -4.07436096 10.30422363 -4.07644653 9.14086914 C-4.07329437 8.10309326 -4.07014221 7.06531738 -4.06689453 5.99609375 C-4.06609894 5.07755615 -4.06530334 4.15901855 -4.06448364 3.21264648 C-3.86313957 -0.09750628 -3.37469351 0.14360398 0 0 Z " fill="#0153CC" transform="translate(724.9375,64.875)"/>
<path d="M0 0 C3.5386994 1.65139305 4.81070153 2.71605229 7 6 C8.52165656 18.8940372 8.52165656 18.8940372 5.125 23.875 C1.30035084 26.47576143 -1.14304782 26.74763959 -5.69140625 26.45703125 C-8 26 -8 26 -10.5 24.3125 C-13.91973942 19.04040172 -14.91113646 14.23524712 -14 8 C-10.52385665 1.40731435 -7.45621037 -0.64277676 0 0 Z " fill="#FAFAFA" transform="translate(524,154)"/>
<path d="M0 0 C13 0 13 0 16.8125 2.6875 C19.78332749 7.07642641 19.63825663 11.76465361 19.6015625 16.9140625 C18.87918606 20.61975983 17.64158478 22.3392037 15 25 C12 26 12 26 0 26 C0 17.42 0 8.84 0 0 Z " fill="#F8F8F8" transform="translate(270,154)"/>
<path d="M0 0 C12 0 12 0 15.6875 2.375 C19.14249732 6.29688884 19.28391013 8.61348775 19.21875 13.6796875 C18.9055556 17.00178527 17.84008127 19.2398781 16 22 C12 25 12 25 0 25 C0 16.75 0 8.5 0 0 Z " fill="#FCFCFC" transform="translate(659,155)"/>
<path d="M0 0 C2.701875 -0.0825 5.40375 -0.165 8.1875 -0.25 C9.02949951 -0.28641602 9.87149902 -0.32283203 10.73901367 -0.36035156 C14.55630579 -0.41661499 16.61978426 -0.21396358 20.01953125 1.69921875 C22.34410621 4.39976047 22.62723725 5.54757091 22.5 9.0625 C22.4896875 9.91972656 22.479375 10.77695313 22.46875 11.66015625 C21.91517335 14.42342635 21.22480532 15.31565446 19 17 C15.23508833 18.25497056 11.72793525 18.10661648 7.8125 18.0625 C5.234375 18.041875 2.65625 18.02125 0 18 C0 12.06 0 6.12 0 0 Z " fill="#F9FBFD" transform="translate(673,73)"/>
<path d="M0 0 C2.97 0 5.94 0 9 0 C9 2.64 9 5.28 9 8 C11.64 8 14.28 8 17 8 C17 10.97 17 13.94 17 17 C14.36 17 11.72 17 9 17 C9 19.64 9 22.28 9 25 C6.03 25 3.06 25 0 25 C0 22.36 0 19.72 0 17 C-2.64 17 -5.28 17 -8 17 C-8 14.03 -8 11.06 -8 8 C-5.36 8 -2.72 8 0 8 C0 5.36 0 2.72 0 0 Z " fill="#FEFCFD" transform="translate(113,76)"/>
<path d="M0 0 C2.5 0.125 2.5 0.125 3.5 1.125 C3.58783542 3.34355264 3.60694609 5.56488496 3.59765625 7.78515625 C3.5962413 8.44962265 3.59482635 9.11408905 3.59336853 9.7986908 C3.58775518 11.92833899 3.57520054 14.05788339 3.5625 16.1875 C3.55748671 17.62825369 3.55292351 19.06900903 3.54882812 20.50976562 C3.53863076 24.04824958 3.5190583 27.58650813 3.5 31.125 C9.11 31.125 14.72 31.125 20.5 31.125 C20.83 32.775 21.16 34.425 21.5 36.125 C19.08183834 38.54316166 12.81222181 37.31047019 9.5625 37.3125 C8.53447266 37.32474609 7.50644531 37.33699219 6.44726562 37.34960938 C5.46564453 37.35154297 4.48402344 37.35347656 3.47265625 37.35546875 C2.11539429 37.36163208 2.11539429 37.36163208 0.73071289 37.36791992 C-1.5 37.125 -1.5 37.125 -3.5 35.125 C-3.68729753 32.55572969 -3.75574642 30.09626023 -3.73046875 27.52734375 C-3.72978142 26.40314781 -3.72978142 26.40314781 -3.7290802 25.25624084 C-3.72605811 23.67170631 -3.71817306 22.08717474 -3.70581055 20.50268555 C-3.68754683 18.06874142 -3.68530089 15.63517738 -3.68554688 13.20117188 C-3.68063201 11.66405919 -3.67480382 10.1269491 -3.66796875 8.58984375 C-3.66685593 7.85757065 -3.6657431 7.12529755 -3.66459656 6.37083435 C-3.60601427 0.18030071 -3.60601427 0.18030071 0 0 Z " fill="#6F6F6F" transform="translate(915.5,148.875)"/>
<path d="M0 0 C0.66 0 1.32 0 2 0 C3.50605402 3.28893003 5.00380532 6.58157446 6.5 9.875 C7.14388672 11.28072266 7.14388672 11.28072266 7.80078125 12.71484375 C8.40986328 14.05869141 8.40986328 14.05869141 9.03125 15.4296875 C9.40830078 16.25710449 9.78535156 17.08452148 10.17382812 17.93701172 C11 20 11 20 11 22 C4.73 22 -1.54 22 -8 22 C-6.875 15.25 -6.875 15.25 -5.37109375 11.9140625 C-5.05849609 11.21152344 -4.74589844 10.50898437 -4.42382812 9.78515625 C-4.09833984 9.07230469 -3.77285156 8.35945313 -3.4375 7.625 C-3.10814453 6.88894531 -2.77878906 6.15289062 -2.43945312 5.39453125 C-1.63252195 3.59355443 -0.8171174 1.79637819 0 0 Z " fill="#EDF3FB" transform="translate(826,77)"/>
<path d="M0 0 C9.97814208 -0.36065574 9.97814208 -0.36065574 14.1875 1.125 C16 3 16 3 16.5625 5.9375 C15.87394751 9.68628577 14.98679309 10.68684516 12 13 C7.93404512 13.52667809 4.11858117 13.17906875 0 13 C0 8.71 0 4.42 0 0 Z " fill="#F1F1F1" transform="translate(733,154)"/>
<path d="M0 0 C2.29141286 -0.05384521 4.58318188 -0.09272087 6.875 -0.125 C8.78925781 -0.15980469 8.78925781 -0.15980469 10.7421875 -0.1953125 C14 0 14 0 16 2 C16.3125 5.5 16.3125 5.5 16 9 C12.36804504 11.42130331 10.61650652 11.21022785 6.3125 11.125 C5.13300781 11.10695312 3.95351563 11.08890625 2.73828125 11.0703125 C1.83464844 11.04710937 0.93101562 11.02390625 0 11 C0 7.37 0 3.74 0 0 Z " fill="#F7F7F7" transform="translate(464,170)"/>
<path d="M0 0 C10.33241842 -0.36901494 10.33241842 -0.36901494 13.33203125 1.2890625 C15 3 15 3 15.4375 6.5625 C15.293125 7.696875 15.14875 8.83125 15 10 C10.25368713 13.16420858 5.63243123 12.12112755 0 12 C0 8.04 0 4.08 0 0 Z " fill="#F9F9F9" transform="translate(612,154)"/>
<path d="M0 0 C1.93719378 -0.05406122 3.87481921 -0.09282025 5.8125 -0.125 C6.89144531 -0.14820313 7.97039062 -0.17140625 9.08203125 -0.1953125 C12 0 12 0 15 2 C15.375 5.5 15.375 5.5 15 9 C11.47320901 11.35119399 9.97120515 11.21443452 5.8125 11.125 C4.72582031 11.10695312 3.63914062 11.08890625 2.51953125 11.0703125 C1.27236328 11.03550781 1.27236328 11.03550781 0 11 C0 7.37 0 3.74 0 0 Z " fill="#F3F3F3" transform="translate(464,154)"/>
<path d="M0 0 C3.02952396 1.51476198 3.37093771 3.85368016 4.625 6.9375 C5.07101562 8.01902344 5.51703125 9.10054687 5.9765625 10.21484375 C7 13 7 13 7 15 C2.71 15 -1.58 15 -6 15 C-4.32819664 9.74576086 -2.62305301 4.87138415 0 0 Z " fill="#F4F4F4" transform="translate(571,157)"/>
<path d="M0 0 C3.02952396 1.51476198 3.37093771 3.85368016 4.625 6.9375 C5.07101562 8.01902344 5.51703125 9.10054687 5.9765625 10.21484375 C7 13 7 13 7 15 C2.71 15 -1.58 15 -6 15 C-4.32819664 9.74576086 -2.62305301 4.87138415 0 0 Z " fill="#F4F4F4" transform="translate(329,157)"/>
<path d="M0 0 C2.52861573 2.26053899 3.83856528 4.39900064 5.1875 7.5 C5.53167969 8.2734375 5.87585938 9.046875 6.23046875 9.84375 C7 12 7 12 7 15 C3.04 15 -0.92 15 -5 15 C-4.43174347 9.45949887 -2.37113483 4.96284034 0 0 Z " fill="#F4F4F4" transform="translate(786,157)"/>
<path d="M0 0 C0.66 0.33 1.32 0.66 2 1 C1.34 1.66 0.68 2.32 0 3 C1.32 3.66 2.64 4.32 4 5 C1.21079611 5.8630406 -1.58086072 6.71572307 -4.375 7.5625 C-5.1690625 7.80935547 -5.963125 8.05621094 -6.78125 8.31054688 C-7.54179687 8.53935547 -8.30234375 8.76816406 -9.0859375 9.00390625 C-9.7876709 9.21861572 -10.4894043 9.4333252 -11.21240234 9.65454102 C-13 10 -13 10 -15 9 C-13.50146484 8.15115234 -13.50146484 8.15115234 -11.97265625 7.28515625 C-10.66922254 6.5443558 -9.36583975 5.80346575 -8.0625 5.0625 C-7.40314453 4.68931641 -6.74378906 4.31613281 -6.06445312 3.93164062 C-2.84167167 2.23037187 -2.84167167 2.23037187 0 0 Z " fill="#3A79D7" transform="translate(148,149)"/>
</svg>
