<?xml version="1.0" encoding="UTF-8"?>
<svg version="1.1" xmlns="http://www.w3.org/2000/svg" width="805" height="261">
<path d="M0 0 C265.65 0 531.3 0 805 0 C805 86.13 805 172.26 805 261 C539.35 261 273.7 261 0 261 C0 174.87 0 88.74 0 0 Z " fill="#FEFEFE" transform="translate(0,0)"/>
<path d="M0 0 C1.22807373 -0.01260864 2.45614746 -0.02521729 3.72143555 -0.03820801 C5.0577858 -0.03104814 6.3941308 -0.02284414 7.73046875 -0.01367188 C9.1052274 -0.01636764 10.47998419 -0.02025077 11.85473633 -0.02526855 C14.73309519 -0.0311598 17.61095684 -0.02261364 20.48925781 -0.00390625 C24.17500891 0.01888424 27.85959497 0.00575899 31.54530334 -0.01819611 C34.38326768 -0.03266486 37.22095673 -0.02804341 40.05892944 -0.01768494 C41.41767516 -0.01502057 42.77644603 -0.01827728 44.13516235 -0.02760315 C46.03541574 -0.03778428 47.93575699 -0.01950917 49.8359375 0 C51.45665161 0.00477356 51.45665161 0.00477356 53.11010742 0.00964355 C56.66878642 0.65339902 57.8382658 1.5791939 59.91796875 4.51757812 C60.39898682 7.20050049 60.39898682 7.20050049 60.37207031 10.29589844 C60.37176819 11.45679993 60.37146606 12.61770142 60.37115479 13.81378174 C60.35050964 15.0618158 60.3298645 16.30984985 60.30859375 17.59570312 C60.30293396 18.87741394 60.29727417 20.15912476 60.29144287 21.47967529 C60.27620343 24.8797144 60.23693791 28.27906506 60.19262695 31.67883301 C60.15163674 35.15102832 60.13342396 38.62333537 60.11328125 42.09570312 C60.07044075 48.90327679 60.00221087 55.71039436 59.91796875 62.51757812 C60.83913483 62.30441452 61.7603009 62.09125092 62.7093811 61.87162781 C69.0935592 60.43991255 75.08091871 59.13449945 81.62890625 59.22460938 C82.8921875 59.23427734 84.15546875 59.24394531 85.45703125 59.25390625 C86.72289062 59.27904297 87.98875 59.30417969 89.29296875 59.33007812 C90.62628659 59.34518516 91.95962142 59.3588627 93.29296875 59.37109375 C96.5017544 59.40597185 99.70962505 59.45497786 102.91796875 59.51757812 C102.91796875 60.17757812 102.91796875 60.83757812 102.91796875 61.51757812 C101.33435547 61.72060547 101.33435547 61.72060547 99.71875 61.92773438 C81.18851126 64.52977179 64.29510439 70.55921951 47.91796875 79.51757812 C46.71639787 80.15086905 45.51457802 80.78368786 44.3125 81.41601562 C35.40795382 86.20360379 27.68992528 92.09213078 19.91796875 98.51757812 C19.58796875 97.85757813 19.25796875 97.19757813 18.91796875 96.51757812 C19.71480426 94.4236382 20.60876959 92.36644822 21.54296875 90.33007812 C30.21393839 70.77794139 34.09143965 51.1963934 34.10546875 29.83007812 C34.11771484 28.83685547 34.12996094 27.84363281 34.14257812 26.8203125 C34.15355589 21.31313178 33.7584192 16.71885114 31.91796875 11.51757812 C10.65395987 30.96242275 -2.3195805 57.54774871 -3.64453125 86.39257812 C-3.70930664 87.71128906 -3.70930664 87.71128906 -3.77539062 89.05664062 C-3.88072464 91.21013609 -3.98180774 93.36383877 -4.08203125 95.51757812 C-5.83975798 92.88098802 -6.54353087 91.27986471 -7.39453125 88.33007812 C-10.39694344 79.15934387 -15.79698252 71.88569272 -24.421875 67.26367188 C-26.62136514 66.27188847 -28.82612822 65.37214821 -31.08203125 64.51757812 C-32.74918397 63.85212788 -34.41596895 63.18575372 -36.08203125 62.51757812 C-30.14490009 82.47707936 -21.39653095 101.15567601 -7.08203125 116.51757812 C-6.42203125 116.84757812 -5.76203125 117.17757812 -5.08203125 117.51757812 C-5.08203125 118.17757812 -5.08203125 118.83757812 -5.08203125 119.51757812 C-6.91796875 120.70898437 -6.91796875 120.70898437 -9.45703125 122.08007812 C-15.85992107 125.7817488 -22.22813189 130.577787 -26.60400391 136.61865234 C-30.4552159 139.56985696 -34.23226097 139.08999679 -38.95703125 139.04882812 C-39.91851074 139.05265503 -40.87999023 139.05648193 -41.87060547 139.0604248 C-43.90137785 139.06314415 -45.93218524 139.05578142 -47.96289062 139.0390625 C-51.07110695 139.01765337 -54.17701181 139.03886359 -57.28515625 139.06445312 C-59.25911968 139.06180985 -61.23308168 139.05668489 -63.20703125 139.04882812 C-64.13628418 139.05692505 -65.06553711 139.06502197 -66.02294922 139.07336426 C-67.32449951 139.05445129 -67.32449951 139.05445129 -68.65234375 139.03515625 C-69.79340576 139.03038269 -69.79340576 139.03038269 -70.95751953 139.0255127 C-74.0383334 138.28894257 -75.20127556 137.03902793 -77.08203125 134.51757812 C-77.58996582 131.67175293 -77.58996582 131.67175293 -77.59960938 128.34375 C-77.61221802 127.09565552 -77.62482666 125.84756104 -77.63781738 124.56164551 C-77.63065753 123.20320063 -77.62245354 121.84476091 -77.61328125 120.48632812 C-77.61597694 119.08914927 -77.61986001 117.69197225 -77.62487793 116.2947998 C-77.63076951 113.36936548 -77.62222188 110.44442034 -77.60351562 107.51904297 C-77.58072519 103.77276421 -77.59385025 100.02763168 -77.61780548 96.28139496 C-77.6322733 93.3971089 -77.6276532 90.51309374 -77.61729431 87.62879944 C-77.61462969 86.24772505 -77.61788755 84.86662592 -77.62721252 83.48558044 C-77.63739213 81.55419396 -77.61912012 79.62272102 -77.59960938 77.69140625 C-77.596427 76.59316528 -77.59324463 75.49492432 -77.58996582 74.36340332 C-76.96154814 70.84254264 -75.90431917 69.65564614 -73.08203125 67.51757812 C-69.87402344 67.06347656 -69.87402344 67.06347656 -66.12890625 67.12695312 C-65.46868469 67.13261292 -64.80846313 67.13827271 -64.12823486 67.144104 C-62.02874862 67.16641582 -59.93099755 67.21659498 -57.83203125 67.26757812 C-56.40497265 67.28765018 -54.97788717 67.30589973 -53.55078125 67.32226562 C-50.05999906 67.36285612 -46.57294644 67.44113473 -43.08203125 67.51757812 C-45.06203125 63.22757813 -47.04203125 58.93757813 -49.08203125 54.51757812 C-35.54315803 53.86510231 -24.51784087 57.22698911 -13.08203125 64.51757812 C-12.42203125 65.17757812 -11.76203125 65.83757812 -11.08203125 66.51757812 C-11.07838562 65.74971985 -11.07473999 64.98186157 -11.07098389 64.19073486 C-11.03310379 56.95135401 -10.97625195 49.71248776 -10.89812851 42.47343826 C-10.85863298 38.75180559 -10.82645507 35.03041023 -10.81103516 31.30859375 C-10.79588164 27.71620542 -10.76146101 24.12446944 -10.71372223 20.53237152 C-10.69889464 19.16252058 -10.69098944 17.7925765 -10.6901474 16.42264557 C-10.68778054 14.5026818 -10.65843313 12.58280884 -10.62792969 10.66308594 C-10.61460602 9.0242746 -10.61460602 9.0242746 -10.60101318 7.35235596 C-9.46686363 1.15741584 -5.81394354 0.01712406 0 0 Z " fill="#029FDC" transform="translate(104.08203125,41.482421875)"/>
<path d="M0 0 C0.33 0 0.66 0 1 0 C0.05605787 19.88788427 0.05605787 19.88788427 -4 28 C-2.7934375 28.433125 -2.7934375 28.433125 -1.5625 28.875 C1 30 1 30 2 32 C2.1067494 33.9854067 2.14885488 35.97440996 2.16113281 37.96264648 C2.17074036 39.21411972 2.1803479 40.46559296 2.19024658 41.75498962 C2.19509383 43.12702249 2.19937284 44.49905746 2.203125 45.87109375 C2.20887606 47.27352399 2.2146338 48.67595421 2.22039795 50.0783844 C2.23090672 53.01978929 2.23675039 55.96116686 2.24023438 58.90258789 C2.24572325 62.67344649 2.26975972 66.44394474 2.29820633 70.21469021 C2.31681925 73.11173055 2.32203754 76.00868379 2.32357025 78.90577888 C2.32659967 80.29607173 2.33463798 81.68636295 2.34775543 83.07659721 C2.36478811 85.020312 2.3610949 86.96417513 2.35644531 88.90795898 C2.36191376 90.56769997 2.36191376 90.56769997 2.36749268 92.26097107 C2 95 2 95 0.60272217 96.81825256 C-2.13253161 98.83505822 -4.00660736 99.16030834 -7.3515625 99.31640625 C-8.20234375 99.35830078 -9.053125 99.40019531 -9.9296875 99.44335938 C-10.81914062 99.48267578 -11.70859375 99.52199219 -12.625 99.5625 C-13.97078125 99.62727539 -13.97078125 99.62727539 -15.34375 99.69335938 C-17.56234283 99.79956861 -19.7810488 99.90161194 -22 100 C-21.41734375 100.44988281 -20.8346875 100.89976562 -20.234375 101.36328125 C-15.13686007 105.36274658 -10.22036092 109.50756885 -5.4375 113.875 C-4.91317383 114.35106689 -4.38884766 114.82713379 -3.84863281 115.31762695 C-0.12478149 118.75043702 -0.12478149 118.75043702 1 121 C-12.60851879 125.93144111 -24.95502694 128.15274761 -39.5 128.3125 C-40.53237793 128.33030518 -41.56475586 128.34811035 -42.62841797 128.36645508 C-50.41733002 128.35845572 -57.48889602 127.01582533 -65 125 C-64.9685791 126.70313354 -64.9685791 126.70313354 -64.93652344 128.44067383 C-64.86416054 132.65050663 -64.81821407 136.86028441 -64.78027344 141.07055664 C-64.76014941 142.8932418 -64.73284704 144.71586234 -64.69824219 146.53833008 C-64.64975732 149.15722588 -64.62703991 151.77526879 -64.609375 154.39453125 C-64.58872986 155.21025101 -64.56808472 156.02597076 -64.54681396 156.8664093 C-64.54456561 162.52638533 -64.54456561 162.52638533 -66.64825439 164.71405029 C-69.63094075 166.34500248 -71.68716184 166.38707649 -75.08203125 166.40405273 C-76.31010498 166.41673691 -77.53817871 166.42942108 -78.8034668 166.44248962 C-80.13981291 166.44043825 -81.47615787 166.43745028 -82.8125 166.43359375 C-84.18725848 166.43815631 -85.56201469 166.4434621 -86.93676758 166.44947815 C-89.8150358 166.45840436 -92.69302647 166.45599152 -95.57128906 166.44604492 C-99.25699851 166.43454806 -102.94175088 166.45477856 -106.62733459 166.48396206 C-109.46527168 166.50232005 -112.30297913 166.50203266 -115.14096069 166.49632454 C-116.49971867 166.49617131 -117.85849219 166.50221699 -119.2171936 166.51461601 C-121.11739844 166.52951561 -123.01776094 166.5162242 -124.91796875 166.50170898 C-126.53868286 166.50145973 -126.53868286 166.50145973 -128.19213867 166.50120544 C-131.75430428 165.8653561 -132.91989314 164.94020659 -135 162 C-135.48101807 159.31707764 -135.48101807 159.31707764 -135.45410156 156.22167969 C-135.45364838 154.48032745 -135.45364838 154.48032745 -135.45318604 152.70379639 C-135.43254089 151.45576233 -135.41189575 150.20772827 -135.390625 148.921875 C-135.38496521 147.64016418 -135.37930542 146.35845337 -135.37347412 145.03790283 C-135.35823468 141.63786372 -135.31896916 138.23851306 -135.2746582 134.83874512 C-135.23366799 131.36654981 -135.21545521 127.89424276 -135.1953125 124.421875 C-135.152472 117.61430134 -135.08424212 110.80718376 -135 104 C-137.23629493 104.43556841 -139.47023615 104.88323203 -141.703125 105.3359375 C-143.56952637 105.7079126 -143.56952637 105.7079126 -145.47363281 106.08740234 C-150.01510171 107.26270079 -153.28866144 109.2264728 -157 112 C-157.99 112.495 -157.99 112.495 -159 113 C-158.7433503 108.76528003 -157.00259669 105.99717579 -154.1796875 102.890625 C-147.43537818 97.04072229 -131.92178179 87 -123 87 C-122.84144531 88.07636719 -122.68289062 89.15273437 -122.51953125 90.26171875 C-119.57772966 109.12092322 -112.91285002 125.46463041 -99 139 C-98.01 139.66 -97.02 140.32 -96 141 C-95.21094765 128.00255438 -97.65940305 116.20919759 -104.14453125 104.85546875 C-104.42683594 104.24316406 -104.70914063 103.63085938 -105 103 C-104.67 102.34 -104.34 101.68 -104 101 C-103.175 101.50789063 -102.35 102.01578125 -101.5 102.5390625 C-92.66027244 107.85872829 -83.80419211 111.81728692 -74 115 C-72.81277344 115.41507812 -71.62554687 115.83015625 -70.40234375 116.2578125 C-60.20987004 119.27233937 -50.04984557 119.36745541 -39.5 119.375 C-38.75389465 119.37699402 -38.00778931 119.37898804 -37.23907471 119.38104248 C-29.27301502 119.37863443 -21.72680456 119.17533912 -14 117 C-33.40457887 95.5880509 -66.06463926 84.97351179 -94 82 C-91.07972281 79.07972281 -87.39539656 78.30968974 -83.5625 77 C-64.30117507 70.13001108 -47.11703873 59.98665347 -32.1640625 46.0078125 C-30.30874922 44.28645685 -28.41279126 42.70342909 -26.4375 41.125 C-14.22299398 30.69237486 -5.03947062 15.11841186 0 0 Z " fill="#9CC34C" transform="translate(229,81)"/>
<path d="M0 0 C0.92586914 0.00644531 1.85173828 0.01289062 2.80566406 0.01953125 C13.8317291 0.31304472 21.88096809 3.70546918 29.84765625 11.3984375 C32.6953049 14.54429986 34.88538196 17.69032941 36.75 21.5 C37.06839844 22.14066406 37.38679687 22.78132813 37.71484375 23.44140625 C41.47579074 32.57513465 41.10207108 44.9878164 37.7890625 54.19921875 C32.20157562 66.57151112 24.61105393 74.41162143 12.07421875 79.609375 C1.74452101 82.37690859 -11.13050137 81.91311372 -20.703125 77.11328125 C-30.15515345 71.1260301 -36.81504258 63.43234141 -39.7421875 52.53125 C-42.02114657 38.9276174 -40.3712959 27.32240157 -32.625 15.75 C-24.20225405 4.79103687 -13.58655303 -0.09870362 0 0 Z " fill="#5372FF" transform="translate(628.25,66.5)"/>
<path d="M0 0 C12 0 12 0 14.83203125 2.4375 C15.84887695 4.11499023 15.84887695 4.11499023 16.8125 6 C17.61413127 7.36615078 18.41625034 8.7320154 19.21875 10.09765625 C19.64929688 10.86609863 20.07984375 11.63454102 20.5234375 12.42626953 C22.82762151 16.44259027 25.32366584 20.3347919 27.79760742 24.24804688 C30.29081514 28.19464394 32.75309077 32.15999297 35.21411133 36.12670898 C37.46943814 39.75527239 39.73565922 43.37705476 42 47 C42.33 31.49 42.66 15.98 43 0 C47.95 0 52.9 0 58 0 C58 25.74 58 51.48 58 78 C45 78 45 78 42.21411133 75.94311523 C41.6755249 74.99122314 41.13693848 74.03933105 40.58203125 73.05859375 C39.95256592 72.00639648 39.32310059 70.95419922 38.67456055 69.87011719 C38.06008057 68.73735352 37.44560059 67.60458984 36.8125 66.4375 C36.14141429 65.2838961 35.46534836 64.13317549 34.78442383 62.98535156 C33.44709293 60.71377397 32.12564095 58.43276329 30.82128906 56.14208984 C28.45062692 52.05222098 25.86341584 48.14422724 23.1875 44.25 C20.68175961 40.55321804 18.30067283 36.83445472 16 33 C15.67 47.85 15.34 62.7 15 78 C10.05 78 5.1 78 0 78 C0 52.26 0 26.52 0 0 Z " fill="#5271FF" transform="translate(400,68)"/>
<path d="M0 0 C1.05123047 -0.02900391 2.10246094 -0.05800781 3.18554688 -0.08789062 C10.29043081 -0.14536635 15.02739313 0.97579928 21.3125 4.3125 C21.3125 10.2525 21.3125 16.1925 21.3125 22.3125 C20.6525 22.3125 19.9925 22.3125 19.3125 22.3125 C18.796875 21.714375 18.28125 21.11625 17.75 20.5 C11.84112729 15.19716552 4.20606452 14.69106828 -3.46875 14.90625 C-10.54870984 15.79983716 -15.78290141 18.70857698 -20.1875 24.3125 C-25.46364727 31.91996816 -25.82586456 40.34731665 -24.6875 49.3125 C-22.88742265 55.27060726 -20.12790721 60.04825567 -14.6875 63.3125 C-8.79212254 66.02734609 -2.44578013 66.57920173 3.76953125 64.484375 C7.72921578 62.65760798 7.72921578 62.65760798 10.3125 59.3125 C10.54108114 57.2750237 10.72274278 55.23209697 10.875 53.1875 C11.019375 51.24875 11.16375 49.31 11.3125 47.3125 C6.6925 47.3125 2.0725 47.3125 -2.6875 47.3125 C-2.6875 42.6925 -2.6875 38.0725 -2.6875 33.3125 C7.2125 32.9825 17.1125 32.6525 27.3125 32.3125 C27.23 37.2625 27.1475 42.2125 27.0625 47.3125 C27.04670898 48.85808594 27.03091797 50.40367188 27.01464844 51.99609375 C26.80785959 60.3634234 26.42241052 66.83296156 20.48828125 73.30078125 C19.87339844 73.73777344 19.25851562 74.17476563 18.625 74.625 C18.02300781 75.07488281 17.42101562 75.52476562 16.80078125 75.98828125 C9.84031477 79.69251695 3.20087976 80.84694051 -4.625 80.75 C-5.94540283 80.7353772 -5.94540283 80.7353772 -7.29248047 80.72045898 C-18.17683223 80.42276904 -24.61896345 77.23268089 -32.4921875 69.66796875 C-40.63453532 60.93160623 -43.19901629 51.14843716 -43.10913086 39.35546875 C-42.74359997 29.14473142 -39.47832441 20.87240573 -32.6875 13.3125 C-31.90052734 12.38824219 -31.90052734 12.38824219 -31.09765625 11.4453125 C-22.35902778 1.8636634 -12.35305825 0.11155682 0 0 Z " fill="#5371FF" transform="translate(532.6875,66.6875)"/>
<path d="M0 0 C5.28 0 10.56 0 16 0 C16 10.23 16 20.46 16 31 C24.91 31 33.82 31 43 31 C43 20.77 43 10.54 43 0 C48.28 0 53.56 0 59 0 C59 25.74 59 51.48 59 78 C53.72 78 48.44 78 43 78 C43 67.11 43 56.22 43 45 C34.09 45 25.18 45 16 45 C16 55.89 16 66.78 16 78 C10.72 78 5.44 78 0 78 C0 52.26 0 26.52 0 0 Z " fill="#5775FF" transform="translate(245,68)"/>
<path d="M0 0 C5.68345318 3.41726615 10.01266208 8.59513683 12.09375 14.9375 C14.00392389 25.12509406 13.18352388 34.20933893 8 43.125 C2.91362721 47.95053316 -2.89752668 50.71299778 -9.9375 51.0625 C-17.44101315 50.66981261 -23.7571777 47.62098651 -28.875 42.125 C-34.37219266 34.86808278 -35.47982733 27.4246779 -34.4375 18.4375 C-32.42201481 10.72230937 -28.89604079 4.27270955 -21.9375 0.0625 C-15.24651105 -2.95351396 -6.71301144 -2.97640239 0 0 Z " fill="#FDFDFF" transform="translate(638.4375,82.5625)"/>
<path d="M0 0 C5.28 0 10.56 0 16 0 C16 21.12 16 42.24 16 64 C22.6 64 29.2 64 36 64 C36 68.62 36 73.24 36 78 C24.12 78 12.24 78 0 78 C0 52.26 0 26.52 0 0 Z " fill="#5170FF" transform="translate(700,68)"/>
<path d="M0 0 C5.28 0 10.56 0 16 0 C16 25.74 16 51.48 16 78 C10.72 78 5.44 78 0 78 C0 52.26 0 26.52 0 0 Z " fill="#5170FF" transform="translate(769,68)"/>
<path d="M0 0 C5.28 0 10.56 0 16 0 C16 25.74 16 51.48 16 78 C10.72 78 5.44 78 0 78 C0 52.26 0 26.52 0 0 Z " fill="#5170FF" transform="translate(344,68)"/>
<path d="M0 0 C19.07526581 18.31225518 19.07526581 18.31225518 19.3125 29.25 C19.26436691 34.7070896 18.88459924 37.90542242 15 42 C10.43520316 46.32454437 6.33973555 47.77357398 0.125 48.375 C-4.52397455 48.2325027 -8.24755226 46.72073262 -12 44 C-16.82467079 37.93823413 -17.47779822 32.85575458 -17.40234375 25.28515625 C-16.77579227 20.16933299 -14.50882018 17.59746405 -11 14 C-9.59971378 12.44148935 -8.2039793 10.87887873 -6.8125 9.3125 C-6.15894531 8.60738281 -5.50539063 7.90226563 -4.83203125 7.17578125 C-2.92293464 4.90847462 -1.45727888 2.57618031 0 0 Z " fill="#9CC34C" transform="translate(69,199)"/>
<path d="M0 0 C-0.433125 1.35544922 -0.433125 1.35544922 -0.875 2.73828125 C-1.24625 3.91777344 -1.6175 5.09726563 -2 6.3125 C-2.37125 7.48425781 -2.7425 8.65601563 -3.125 9.86328125 C-4.13434772 12.93886676 -4.13434772 12.93886676 -4 16 C-3.63648438 15.4946875 -3.27296875 14.989375 -2.8984375 14.46875 C1.19655667 9.17675753 1.19655667 9.17675753 5.125 8.3125 C8 9 8 9 10.375 10.3125 C13.0645427 14.76058986 12.72399253 18.9512733 12 24 C10.03771236 31.27041133 7.13997381 37.1183442 1.125 41.7890625 C-2.38523674 43.78938123 -4.9600467 44.06847378 -9 44 C-9.99 43.34 -10.98 42.68 -12 42 C-13.31626692 45.61973402 -14 48.09567131 -14 52 C-12.35 52.33 -10.7 52.66 -9 53 C-9 53.66 -9 54.32 -9 55 C-14.28 55 -19.56 55 -25 55 C-25 54.34 -25 53.68 -25 53 C-24.37673828 52.77143311 -23.75347656 52.54286621 -23.11132812 52.30737305 C-20.30327274 50.56857372 -20.08354574 49.23328597 -19.21875 46.08203125 C-18.93596191 45.08163818 -18.65317383 44.08124512 -18.36181641 43.05053711 C-18.07741699 41.98198486 -17.79301758 40.91343262 -17.5 39.8125 C-17.19884277 38.72783447 -16.89768555 37.64316895 -16.58740234 36.52563477 C-15.7106338 33.35412854 -14.85457814 30.17754265 -14 27 C-13.56686579 25.4396141 -13.13220492 23.87965031 -12.6953125 22.3203125 C-11.40473245 17.654326 -10.14996148 13.08267645 -9.484375 8.27734375 C-8.96669987 4.77468703 -8.14064248 2.7993017 -6 0 C-3 -1 -3 -1 0 0 Z " fill="#121212" transform="translate(595,166)"/>
<path d="M0 0 C0.66 0.66 1.32 1.32 2 2 C4.31 1.34 6.62 0.68 9 0 C7.48030274 7.07470713 5.72008263 14.06619387 3.875 21.0625 C3.59785156 22.11888672 3.32070313 23.17527344 3.03515625 24.26367188 C2.35826901 26.84284566 1.67985409 29.42160698 1 32 C4.21630878 30.51686115 5.50084868 29.74770856 6.75 26.375 C7.1625 25.26125 7.575 24.1475 8 23 C9 26 9 26 7.8125 29 C6.04668373 31.92273038 5.03511006 33.48244497 2 35 C-0.75 34.6875 -0.75 34.6875 -3 34 C-3.66 32.02 -4.32 30.04 -5 28 C-5.680625 28.969375 -6.36125 29.93875 -7.0625 30.9375 C-9.32121431 33.65954032 -9.98616529 33.99618353 -13.625 35 C-17 35 -17 35 -20 33 C-22.52882592 25.41352225 -20.28096515 19.02631307 -17 12 C-12.98571765 5.4011797 -8.45757336 -1.12767645 0 0 Z " fill="#1C1C1C" transform="translate(706,175)"/>
<path d="M0 0 C3 1.8125 3 1.8125 5 5 C6.66212073 13.22886002 4.15084328 20.89905614 0 28 C-3.89795096 32.48648185 -7.38586252 34.70954028 -13.375 35.375 C-17 35 -17 35 -19.9375 33.25 C-23.13120748 28.21749124 -22.97451119 23.7917757 -22 18 C-18.37141037 7.62198596 -12.28503051 -1.94963199 0 0 Z " fill="#191919" transform="translate(519,175)"/>
<path d="M0 0 C5.61 0 11.22 0 17 0 C16.67 0.66 16.34 1.32 16 2 C15.21238281 2.18304688 14.42476563 2.36609375 13.61328125 2.5546875 C10.52284239 4.26389883 10.42067321 4.8766288 9.41796875 8.1328125 C8.98284323 9.79052114 8.57778943 11.45616618 8.1875 13.125 C7.1046875 17.518125 7.1046875 17.518125 6 22 C12.93 22 19.86 22 27 22 C27.33 19.36 27.66 16.72 28 14 C28.48155568 11.82426658 28.99900888 9.65596604 29.5625 7.5 C29.83191406 6.4584375 30.10132813 5.416875 30.37890625 4.34375 C30.58386719 3.5703125 30.78882813 2.796875 31 2 C29.68 2 28.36 2 27 2 C27 1.34 27 0.68 27 0 C32.28 0 37.56 0 43 0 C43 0.66 43 1.32 43 2 C42.20996582 2.23017822 41.41993164 2.46035645 40.60595703 2.69750977 C37.85543184 3.7447119 37.85543184 3.7447119 36.92919922 6.16381836 C36.72311035 7.04690674 36.51702148 7.92999512 36.3046875 8.83984375 C36.06363281 9.82146484 35.82257813 10.80308594 35.57421875 11.81445312 C35.34347656 12.84505859 35.11273438 13.87566406 34.875 14.9375 C34.39381897 16.94675592 33.91204954 18.95587103 33.4296875 20.96484375 C33.08176147 22.45866577 33.08176147 22.45866577 32.72680664 23.98266602 C31.78303313 27.90073685 30.71346431 31.77847038 29.62231445 35.65771484 C28.88960535 38.41550656 28.3820445 41.17287072 28 44 C29.32 44 30.64 44 32 44 C32 44.66 32 45.32 32 46 C26.39 46 20.78 46 15 46 C18 44 18 44 20 43 C20.80861266 40.96079772 20.80861266 40.96079772 21.4375 38.5 C22.79880231 33.58375395 24.37635217 28.87094349 26 24 C19.07 24 12.14 24 5 24 C3.68 30.6 2.36 37.2 1 44 C2.32 44 3.64 44 5 44 C5 44.66 5 45.32 5 46 C-0.61 46 -6.22 46 -12 46 C-11.67 45.34 -11.34 44.68 -11 44 C-10.351521 43.86215088 -9.70304199 43.72430176 -9.03491211 43.58227539 C-8.36339111 43.39012451 -7.69187012 43.19797363 -7 43 C-4.02778546 36.67566381 -2.58249246 29.83179121 -0.9375 23.0625 C-0.68162109 22.02931641 -0.42574219 20.99613281 -0.16210938 19.93164062 C1.30636098 13.97093447 2.6928072 7.99807607 4 2 C2.68 2 1.36 2 0 2 C0 1.34 0 0.68 0 0 Z " fill="#1D1D1D" transform="translate(445,163)"/>
<path d="M0 0 C2.8125 1.4375 2.8125 1.4375 5 3 C5.99 3.33 6.98 3.66 8 4 C8.99 3.01 9.98 2.02 11 1 C9.07289294 11.55808656 9.07289294 11.55808656 7 16 C6.67 16 6.34 16 6 16 C5.97421875 15.39671875 5.9484375 14.7934375 5.921875 14.171875 C5.65825461 10.45722405 5.40082985 7.68475099 3.5 4.4375 C-0.34289236 2.22783689 -3.68339119 2.18789224 -8 3 C-15.42084023 5.98936681 -18.7935166 13.34647674 -22.0390625 20.19140625 C-24.78762477 27.16556191 -25.48905817 35.77814924 -22.98046875 42.890625 C-22.65691406 43.58671875 -22.33335937 44.2828125 -22 45 C-14.10487286 45.50717159 -14.10487286 45.50717159 -6.5625 43.5625 C-3.13696118 40.13696118 -1.09455826 36.33740382 1 32 C1.99 32.495 1.99 32.495 3 33 C2.55187982 35.1479894 2.09121652 37.29336561 1.625 39.4375 C1.24214844 41.22994141 1.24214844 41.22994141 0.8515625 43.05859375 C0.57054687 44.02925781 0.28953125 44.99992187 0 46 C-0.99 46.495 -0.99 46.495 -2 47 C-2 45.68 -2 44.36 -2 43 C-2.60585938 43.3609375 -3.21171875 43.721875 -3.8359375 44.09375 C-9.93332436 47.47076426 -15.00935196 49.31602873 -22 48 C-25.98732341 45.9700899 -28.72771351 43.84739417 -31 40 C-32.5207532 29.53155935 -31.09833504 20.8432619 -25 12 C-18.9965572 4.0830511 -10.09100175 -1.36827142 0 0 Z " fill="#0C0C0C" transform="translate(282,162)"/>
<path d="M0 0 C2.375 0.6875 2.375 0.6875 3.375 1.6875 C4.56461803 10.81440551 2.00142114 20.44359873 -2.4375 28.4375 C-5.35677414 31.44018197 -7.51302639 31.60991559 -11.625 31.6875 C-13.50741343 29.80508657 -12.88602528 26.76684267 -12.9375 24.25 C-12.89656522 17.5503405 -11.71620129 12.58990247 -8.625 6.6875 C-8.109375 5.6975 -7.59375 4.7075 -7.0625 3.6875 C-4.98925611 0.80298676 -3.61407685 -0.43024724 0 0 Z " fill="#F7F7F7" transform="translate(515.625,176.3125)"/>
<path d="M0 0 C2.3125 0.4375 2.3125 0.4375 4.3125 2.4375 C4.90673828 5.14306641 4.90673828 5.14306641 5.3828125 8.5390625 C5.55683594 9.75078125 5.73085938 10.9625 5.91015625 12.2109375 C6.08417969 13.48195312 6.25820313 14.75296875 6.4375 16.0625 C6.61925781 17.34125 6.80101562 18.62 6.98828125 19.9375 C7.43714819 23.10319319 7.87821065 26.26977954 8.3125 29.4375 C9.4685727 27.2340194 10.61234721 25.02546844 11.75 22.8125 C12.23823242 21.88630859 12.23823242 21.88630859 12.73632812 20.94140625 C14.68709474 17.120317 16.00692308 13.73467543 16.3125 9.4375 C14.89583333 7.85416667 14.89583333 7.85416667 13.3125 6.4375 C13.125 3.75 13.125 3.75 13.3125 1.4375 C14.96864657 1.05531233 16.63707024 0.72354898 18.3125 0.4375 C19.3125 1.4375 19.3125 1.4375 19.625 5.3125 C19.42313026 19.46581157 9.94589267 31.90862877 0.3125 41.4375 C-4.35258676 45.34093994 -7.78467445 46.03040858 -13.6875 46.4375 C-14.25 44.5 -14.25 44.5 -14.6875 42.4375 C-14.1925 41.9425 -14.1925 41.9425 -13.6875 41.4375 C-12.30882808 41.68897449 -10.93442323 41.96398889 -9.5625 42.25 C-5.81925515 42.68191287 -3.68580704 42.41616456 -0.5625 40.25 C1.50035245 38.14894658 2.24397557 36.96513812 2.625 34.03125 C2.40525466 30.77169405 1.8909073 27.65425636 1.3125 24.4375 C1.05457283 22.79359459 0.8009525 21.14900982 0.55078125 19.50390625 C0.03328733 16.12110003 -0.50654486 12.74322741 -1.06640625 9.3671875 C-1.6875 5.4375 -1.6875 5.4375 -1.6875 3.4375 C-2.6775 3.4375 -3.6675 3.4375 -4.6875 3.4375 C-4.97625 4.571875 -5.265 5.70625 -5.5625 6.875 C-5.93375 8.050625 -6.305 9.22625 -6.6875 10.4375 C-7.6775 10.9325 -7.6775 10.9325 -8.6875 11.4375 C-8.41566925 7.54125918 -7.87655227 5.67906679 -5.4375 2.5625 C-2.6875 0.4375 -2.6875 0.4375 0 0 Z " fill="#171717" transform="translate(375.6875,174.5625)"/>
<path d="M0 0 C5.61 0 11.22 0 17 0 C16.67 0.66 16.34 1.32 16 2 C14.80648926 2.31940552 14.80648926 2.31940552 13.58886719 2.64526367 C10.64839417 3.83009138 10.64839417 3.83009138 9.62207031 7.3605957 C9.25237164 8.79356287 8.90579432 10.23262331 8.578125 11.67578125 C8.38780701 12.43795456 8.19748901 13.20012787 8.00140381 13.98539734 C7.39769187 16.42338209 6.82372757 18.86730483 6.25 21.3125 C5.84956737 22.9477348 5.44724452 24.58250797 5.04296875 26.21679688 C3.59234909 32.12251964 2.14330204 38.0254427 1 44 C2.32 44 3.64 44 5 44 C5 44.66 5 45.32 5 46 C-0.61 46 -6.22 46 -12 46 C-11.67 45.34 -11.34 44.68 -11 44 C-10.351521 43.86215088 -9.70304199 43.72430176 -9.03491211 43.58227539 C-8.36339111 43.39012451 -7.69187012 43.19797363 -7 43 C-4.02778546 36.67566381 -2.58249246 29.83179121 -0.9375 23.0625 C-0.68162109 22.02931641 -0.42574219 20.99613281 -0.16210938 19.93164062 C1.30636098 13.97093447 2.6928072 7.99807607 4 2 C2.68 2 1.36 2 0 2 C0 1.34 0 0.68 0 0 Z " fill="#141414" transform="translate(445,163)"/>
<path d="M0 0 C-1.00208341 6.69813646 -2.54985581 12.88416357 -4.78515625 19.26953125 C-6.42382038 24.30144201 -7.80579645 29.39242417 -9.1875 34.5 C-9.44950195 35.46848877 -9.71150391 36.43697754 -9.98144531 37.43481445 C-11.01683176 41.28309076 -12.04337248 45.13129393 -13 49 C-10.60510457 48.25675659 -9.29222384 47.52942646 -8.06640625 45.30859375 C-7.32780077 43.55926499 -6.65950315 41.78065851 -6 40 C-5 43 -5 43 -6.1875 46 C-7.95899775 48.93213421 -9.00137222 50.41249118 -12 52 C-14.625 52.3125 -14.625 52.3125 -17 52 C-17.66 51.34 -18.32 50.68 -19 50 C-18.86237956 42.0180143 -16.15744805 34.72970154 -13.71142578 27.21728516 C-12.48339865 23.38991989 -11.33122684 19.5407505 -10.1875 15.6875 C-9.96868164 14.96433594 -9.74986328 14.24117187 -9.52441406 13.49609375 C-8.65423656 10.55906953 -8 8.08116763 -8 5 C-8.99 4.67 -9.98 4.34 -11 4 C-11 3.34 -11 2.68 -11 2 C-9.5422647 1.664061 -8.08378894 1.33133376 -6.625 1 C-5.81289063 0.814375 -5.00078125 0.62875 -4.1640625 0.4375 C-2 0 -2 0 0 0 Z " fill="#151515" transform="translate(749,158)"/>
<path d="M0 0 C0.5775 0.2475 1.155 0.495 1.75 0.75 C2.28680615 9.29416457 1.3767269 15.96947862 -2.25 23.75 C-2.55035156 24.40484375 -2.85070312 25.0596875 -3.16015625 25.734375 C-4.0625 27.375 -4.0625 27.375 -6.25 29.75 C-9.875 30.75 -9.875 30.75 -13.25 30.75 C-15.25 28.75 -15.25 28.75 -15.375 25.125 C-14.71288736 20.11419691 -12.66288138 15.91563648 -10.4375 11.4375 C-10.09412598 10.74382324 -9.75075195 10.05014648 -9.39697266 9.33544922 C-4.31442084 -0.47938009 -4.31442084 -0.47938009 0 0 Z " fill="#F9F9F9" transform="translate(599.25,177.25)"/>
<path d="M0 0 C2.02540195 4.05080391 1.40965157 8.40821103 0.31640625 12.65625 C-2.13167576 19.88875784 -5.55934126 26.55934126 -11 32 C-13.125 31.625 -13.125 31.625 -15 31 C-15.85919686 20.23139934 -13.7231184 11.33130367 -6.9375 2.75 C-4.42661673 -0.17124924 -4.23575669 0 0 0 Z " fill="#F7F7F7" transform="translate(706,176)"/>
<path d="M0 0 C-0.30921884 1.45903258 -0.62248799 2.91720722 -0.9375 4.375 C-1.11152344 5.18710938 -1.28554688 5.99921875 -1.46484375 6.8359375 C-2 9 -2 9 -3 11 C-0.03 11 2.94 11 6 11 C6 11.33 6 11.66 6 12 C3.03 12 0.06 12 -3 12 C-3.25394531 13.05058594 -3.50789062 14.10117188 -3.76953125 15.18359375 C-6.89275164 27.9626183 -6.89275164 27.9626183 -8.75 33.25 C-10.21081851 36.97364769 -10.21081851 36.97364769 -10 41 C-7.57732914 41.05167527 -7.57732914 41.05167527 -5 40 C-3.13016255 36.52692672 -3.13016255 36.52692672 -2 33 C-1.34 33 -0.68 33 0 33 C-2.25641026 41.15384615 -2.25641026 41.15384615 -4.8125 44.0625 C-7.74992781 45.32139763 -9.83767034 45.40370166 -13 45 C-14.875 43.9375 -14.875 43.9375 -16 42 C-16.6782399 35.25426261 -14.54845688 29.43327999 -12.5 23.0625 C-11.99919922 21.46438477 -11.99919922 21.46438477 -11.48828125 19.83398438 C-10.66766383 17.21973174 -9.8380467 14.60870691 -9 12 C-10.65 12 -12.3 12 -14 12 C-14 11.67 -14 11.34 -14 11 C-12.02 11 -10.04 11 -8 11 C-7.855625 10.0925 -7.71125 9.185 -7.5625 8.25 C-7.13590527 5.78523044 -6.64925779 3.41152893 -6 1 C-3.92446352 0.4465236 -2.15634036 0 0 0 Z " fill="#0D0D0D" transform="translate(670,165)"/>
<path d="M0 0 C-0.30921884 1.45903258 -0.62248799 2.91720722 -0.9375 4.375 C-1.11152344 5.18710938 -1.28554688 5.99921875 -1.46484375 6.8359375 C-2 9 -2 9 -3 11 C-0.03 11 2.94 11 6 11 C6 11.33 6 11.66 6 12 C3.03 12 0.06 12 -3 12 C-3.25394531 13.05058594 -3.50789063 14.10117188 -3.76953125 15.18359375 C-6.89275164 27.9626183 -6.89275164 27.9626183 -8.75 33.25 C-10.21081851 36.97364769 -10.21081851 36.97364769 -10 41 C-7.57732914 41.05167527 -7.57732914 41.05167527 -5 40 C-3.13016255 36.52692672 -3.13016255 36.52692672 -2 33 C-1.34 33 -0.68 33 0 33 C-2.25641026 41.15384615 -2.25641026 41.15384615 -4.8125 44.0625 C-7.74992781 45.32139763 -9.83767034 45.40370166 -13 45 C-14.875 43.9375 -14.875 43.9375 -16 42 C-16.6782399 35.25426261 -14.54845688 29.43327999 -12.5 23.0625 C-11.99919922 21.46438477 -11.99919922 21.46438477 -11.48828125 19.83398438 C-10.66766383 17.21973174 -9.8380467 14.60870691 -9 12 C-10.65 12 -12.3 12 -14 12 C-14 11.67 -14 11.34 -14 11 C-12.02 11 -10.04 11 -8 11 C-7.855625 10.0925 -7.71125 9.185 -7.5625 8.25 C-7.13590527 5.78523044 -6.64925779 3.41152893 -6 1 C-3.92446352 0.4465236 -2.15634036 0 0 0 Z " fill="#0D0D0D" transform="translate(351,165)"/>
<path d="M0 0 C0.66 0.66 1.32 1.32 2 2 C1.72055363 8.64361214 -0.8332243 14.73480024 -3.0625 20.9375 C-3.62807617 22.53561523 -3.62807617 22.53561523 -4.20507812 24.16601562 C-5.13092017 26.77946849 -6.06269463 29.39064121 -7 32 C-3.82679643 31.46588528 -3.82679643 31.46588528 -1.734375 29.15234375 C-1.40953125 28.42144531 -1.0846875 27.69054687 -0.75 26.9375 C-0.41484375 26.20402344 -0.0796875 25.47054687 0.265625 24.71484375 C0.50796875 24.14894531 0.7503125 23.58304688 1 23 C2 26 2 26 1.25 28.0078125 C-2.13136013 33.73499123 -2.13136013 33.73499123 -6.6875 35.125 C-10 35 -10 35 -12 33 C-12 25.84345083 -9.64181183 19.65317283 -7.171875 13.02905273 C-5.80676248 9.36574986 -4.61139571 5.88236276 -4 2 C-7.79448125 4.35519526 -9.20578369 6.9630133 -11 11 C-11.33 10.34 -11.66 9.68 -12 9 C-9.20518539 2.43218566 -7.51351587 -0.7993102 0 0 Z " fill="#171717" transform="translate(635,175)"/>
<path d="M0 0 C0.66 0.66 1.32 1.32 2 2 C1.72055363 8.64361214 -0.8332243 14.73480024 -3.0625 20.9375 C-3.62807617 22.53561523 -3.62807617 22.53561523 -4.20507812 24.16601562 C-5.13092017 26.77946849 -6.06269463 29.39064121 -7 32 C-3.82679643 31.46588528 -3.82679643 31.46588528 -1.734375 29.15234375 C-1.40953125 28.42144531 -1.0846875 27.69054687 -0.75 26.9375 C-0.41484375 26.20402344 -0.0796875 25.47054687 0.265625 24.71484375 C0.50796875 24.14894531 0.7503125 23.58304688 1 23 C2 26 2 26 1.25 28.0078125 C-2.13136013 33.73499123 -2.13136013 33.73499123 -6.6875 35.125 C-10 35 -10 35 -12 33 C-12 25.84345083 -9.64181183 19.65317283 -7.171875 13.02905273 C-5.80676248 9.36574986 -4.61139571 5.88236276 -4 2 C-7.79448125 4.35519526 -9.20578369 6.9630133 -11 11 C-11.33 10.34 -11.66 9.68 -12 9 C-9.20518539 2.43218566 -7.51351587 -0.7993102 0 0 Z " fill="#171717" transform="translate(316,175)"/>
<path d="M0 0 C0 0.33 0 0.66 0 1 C-1.98 1.66 -3.96 2.32 -6 3 C-6.91012825 5.73038475 -7.30815498 7.17769169 -7 10 C-5.47570944 12.67763111 -5.47570944 12.67763111 -3.5 15.375 C-0.96001862 19.06076141 0.56842985 21.40368782 0.1875 25.9375 C-0.59944958 29.63417912 -1.84794722 31.77502157 -5 34 C-8.60572704 35.20190901 -11.2102435 35.32670315 -15 35 C-17.9375 33 -17.9375 33 -20 31 C-19.67 29.35 -19.34 27.7 -19 26 C-17.68 26 -16.36 26 -15 26 C-15 28.31 -15 30.62 -15 33 C-10.65815798 32.81535634 -10.65815798 32.81535634 -7 31 C-6.19264698 23.73382278 -7.70337727 20.32818314 -11.6484375 14.2890625 C-13.42509406 11.280043 -13.79346291 9.41189053 -13 6 C-9.11952432 0.17928648 -6.8224337 -0.12634136 0 0 Z " fill="#0D0D0D" transform="translate(557,175)"/>
<path d="M0 0 C3.0625 0.4375 3.0625 0.4375 5.4375 1.75 C8.1270427 6.19808986 7.78649253 10.3887733 7.0625 15.4375 C5.10031855 22.7075179 2.20341684 28.56091511 -3.81640625 33.2265625 C-7.34023675 35.23832577 -9.87377972 35.50522867 -13.9375 35.4375 C-16.4375 34.5 -16.4375 34.5 -17.9375 33.4375 C-17.6075 31.7875 -17.2775 30.1375 -16.9375 28.4375 C-15.9475 29.7575 -14.9575 31.0775 -13.9375 32.4375 C-10.24205688 32.74873693 -10.24205688 32.74873693 -6.9375 31.4375 C-2.1606775 24.40965273 0.21646423 17.60220907 0.125 9.1875 C0.11597656 8.10984375 0.10695313 7.0321875 0.09765625 5.921875 C0.08605469 5.10203125 0.07445312 4.2821875 0.0625 3.4375 C-2.8156214 3.7801335 -3.73873461 4.18595241 -5.5703125 6.50390625 C-6.06273437 7.32761719 -6.55515625 8.15132812 -7.0625 9 C-7.97171222 10.50985759 -8.91996613 11.99841639 -9.9375 13.4375 C-10.5975 13.4375 -11.2575 13.4375 -11.9375 13.4375 C-11.52036812 8.5709614 -9.48284674 6.64519467 -5.9375 3.4375 C-5.2259375 2.5403125 -5.2259375 2.5403125 -4.5 1.625 C-2.9375 0.4375 -2.9375 0.4375 0 0 Z " fill="#1A1A1A" transform="translate(599.9375,174.5625)"/>
<path d="M0 0 C-0.556875 0.20625 -1.11375 0.4125 -1.6875 0.625 C-8.6499983 4.76486385 -11.81261411 12.51067877 -14 20 C-14.50203161 24.05378798 -14.78676336 27.97439415 -14 32 C-13.01 32.66 -12.02 33.32 -11 34 C-11.495 34.495 -11.495 34.495 -12 35 C-15.4375 34.8125 -15.4375 34.8125 -19 34 C-21.00980058 31.72805152 -21.00706706 29.94228566 -21.375 26.9375 C-20.39230957 16.61925045 -15.7069029 8.7069029 -8.5 1.5 C-5.45972504 -0.32416497 -3.48647959 -0.32432368 0 0 Z " fill="#0E0E0E" transform="translate(706,175)"/>
<path d="M0 0 C1.875 0.3125 1.875 0.3125 4 1 C7.02962129 5.54443194 6.64064401 9.67464668 6 15 C4.07393637 21.99917764 1.38808845 27.55531737 -4.25390625 32.20703125 C-6.52692949 33.23929907 -7.69768357 32.82117632 -10 32 C-9.2575 31.38125 -8.515 30.7625 -7.75 30.125 C-2.3746764 24.78021801 -0.13446201 16.28664893 0.09765625 8.88671875 C0.08605469 7.83097656 0.07445312 6.77523437 0.0625 5.6875 C0.05347656 4.61886719 0.04445313 3.55023438 0.03515625 2.44921875 C0.02355469 1.64097656 0.01195312 0.83273438 0 0 Z " fill="#0A0A0A" transform="translate(518,176)"/>
<path d="M0 0 C2.8125 1.4375 2.8125 1.4375 5 3 C5.99 3.33 6.98 3.66 8 4 C8.99 3.01 9.98 2.02 11 1 C9.07289294 11.55808656 9.07289294 11.55808656 7 16 C6.67 16 6.34 16 6 16 C5.97421875 15.39671875 5.9484375 14.7934375 5.921875 14.171875 C5.65825461 10.45722405 5.40082985 7.68475099 3.5 4.4375 C-0.19728071 2.31156359 -3.82669308 2.33903426 -8 3 C-8.99 3.66 -9.98 4.32 -11 5 C-11.99 4.67 -12.98 4.34 -14 4 C-10.06633849 -0.30829594 -5.64380498 -0.65163306 0 0 Z " fill="#1B1B1B" transform="translate(282,162)"/>
<path d="M0 0 C0.66 0.33 1.32 0.66 2 1 C1.55187982 3.1479894 1.09121652 5.29336561 0.625 7.4375 C0.24214844 9.22994141 0.24214844 9.22994141 -0.1484375 11.05859375 C-0.42945313 12.02925781 -0.71046875 12.99992188 -1 14 C-1.99 14.495 -1.99 14.495 -3 15 C-3 13.68 -3 12.36 -3 11 C-3.60585938 11.3609375 -4.21171875 11.721875 -4.8359375 12.09375 C-11.12560045 15.57725564 -15.84408182 16.6851411 -23 16 C-19.93954291 13.95969527 -19.15341002 13.78063672 -15.6875 13.625 C-11.113786 13.16540475 -8.48484557 12.16804143 -5 9 C-3.11024046 6.10036896 -1.50428606 3.11507025 0 0 Z " fill="#373737" transform="translate(283,194)"/>
<path d="M0 0 C0.78375 0.04125 1.5675 0.0825 2.375 0.125 C3.0625 2.4375 3.0625 2.4375 3.375 5.125 C2.25 7 2.25 7 0.375 8.125 C-2.3125 7.8125 -2.3125 7.8125 -4.625 7.125 C-4.75 4.75 -4.75 4.75 -4.625 2.125 C-2.625 0.125 -2.625 0.125 0 0 Z " fill="#141414" transform="translate(637.625,159.875)"/>
<path d="M0 0 C0.78375 0.04125 1.5675 0.0825 2.375 0.125 C3.0625 2.4375 3.0625 2.4375 3.375 5.125 C2.25 7 2.25 7 0.375 8.125 C-2.3125 7.8125 -2.3125 7.8125 -4.625 7.125 C-4.75 4.75 -4.75 4.75 -4.625 2.125 C-2.625 0.125 -2.625 0.125 0 0 Z " fill="#141414" transform="translate(318.625,159.875)"/>
<path d="M0 0 C0.33 0 0.66 0 1 0 C1.20625 1.11375 1.4125 2.2275 1.625 3.375 C2.96209561 8.86102465 5.94609288 13.31350103 9 18 C4.13622925 16.26869087 2.38888451 14.69245171 0 10 C-0.63938293 7.00630008 -1.03225754 4.06446594 -1 1 C-0.67 0.67 -0.34 0.34 0 0 Z " fill="#EFF5E2" transform="translate(58,222)"/>
<path d="M0 0 C1.32 0 2.64 0 4 0 C4 2.31 4 4.62 4 7 C5.98 7 7.96 7 10 7 C10.33 7.66 10.66 8.32 11 9 C6.75519536 9.33292585 4.64457375 9.43885872 1.0625 7 C0.381875 6.34 -0.29875 5.68 -1 5 C-0.67 3.35 -0.34 1.7 0 0 Z " fill="#252525" transform="translate(538,201)"/>
<path d="M0 0 C2.33944736 0.28730055 4.6739143 0.61936779 7 1 C7 1.99 7 2.98 7 4 C4.69 4.33 2.38 4.66 0 5 C-0.5625 3.0625 -0.5625 3.0625 -1 1 C-0.67 0.67 -0.34 0.34 0 0 Z " fill="#090909" transform="translate(362,216)"/>
<path d="M0 0 C1.32 0.66 2.64 1.32 4 2 C3.67 3.98 3.34 5.96 3 8 C1.68 7.67 0.36 7.34 -1 7 C-0.67 4.69 -0.34 2.38 0 0 Z " fill="#141414" transform="translate(558,176)"/>
<path d="M0 0 C-0.8353125 0.37125 -0.8353125 0.37125 -1.6875 0.75 C-4.402852 2.21775784 -6.59721259 4.06604916 -9 6 C-10.6502694 7.0268343 -12.31243867 8.03567924 -14 9 C-11.63175456 2.6057373 -6.73985507 -0.8023637 0 0 Z " fill="#232323" transform="translate(706,175)"/>
<path d="M0 0 C-0.33 0.66 -0.66 1.32 -1 2 C-2.92578125 2.59765625 -2.92578125 2.59765625 -5.3125 3.0625 C-6.48232422 3.29646484 -6.48232422 3.29646484 -7.67578125 3.53515625 C-8.44277344 3.68855469 -9.20976562 3.84195313 -10 4 C-11.33531635 4.32529853 -12.66939662 4.65593093 -14 5 C-13 2 -13 2 -10.9375 0.8125 C-7.14524878 -0.23642055 -3.92937998 -0.13319932 0 0 Z " fill="#464646" transform="translate(282,162)"/>
<path d="M0 0 C0.66 0 1.32 0 2 0 C1.60246179 1.46366342 1.18118616 2.9208935 0.75 4.375 C0.51796875 5.18710938 0.2859375 5.99921875 0.046875 6.8359375 C-1.2214892 9.45785454 -2.32423308 9.99382318 -5 11 C-5.66 10.34 -6.32 9.68 -7 9 C-6.21625 8.62875 -5.4325 8.2575 -4.625 7.875 C-1.39371171 5.56693694 -0.92493788 3.78383679 0 0 Z " fill="#4E4E4E" transform="translate(668,198)"/>
<path d="M0 0 C0.66 0 1.32 0 2 0 C1.60246179 1.46366342 1.18118616 2.9208935 0.75 4.375 C0.51796875 5.18710938 0.2859375 5.99921875 0.046875 6.8359375 C-1.2214892 9.45785454 -2.32423308 9.99382318 -5 11 C-5.66 10.34 -6.32 9.68 -7 9 C-6.21625 8.62875 -5.4325 8.2575 -4.625 7.875 C-1.39371171 5.56693694 -0.92493788 3.78383679 0 0 Z " fill="#4E4E4E" transform="translate(349,198)"/>
<path d="M0 0 C0.66 0.33 1.32 0.66 2 1 C1.34 3.97 0.68 6.94 0 10 C-0.99 9.34 -1.98 8.68 -3 8 C-1.125 2.25 -1.125 2.25 0 0 Z " fill="#262626" transform="translate(283,194)"/>
<path d="M0 0 C0 0.33 0 0.66 0 1 C-0.61488281 1.19335938 -1.22976563 1.38671875 -1.86328125 1.5859375 C-3.07564453 1.97652344 -3.07564453 1.97652344 -4.3125 2.375 C-5.51326172 2.75785156 -5.51326172 2.75785156 -6.73828125 3.1484375 C-9.22724528 3.98831811 -9.22724528 3.98831811 -12 6 C-9.40401988 0.00927665 -6.20086134 -0.23399477 0 0 Z " fill="#171717" transform="translate(557,175)"/>
</svg>
